NotoSansArmenian-Regular.ufo
<glyph name="uni0531" format="2">
  <advance width="831"/>
  <unicode hex="0531"/>
  <note>
uni0531
</note>
  <anchor x="363" y="714" name="top"/>
  <outline>
    <contour>
      <point x="360" y="-10" type="curve" smooth="yes"/>
      <point x="534" y="-10"/>
      <point x="635" y="89"/>
      <point x="635" y="252" type="curve" smooth="yes"/>
      <point x="635" y="714" type="line"/>
      <point x="545" y="714" type="line"/>
      <point x="545" y="261" type="line" smooth="yes"/>
      <point x="545" y="130"/>
      <point x="479" y="66"/>
      <point x="363" y="66" type="curve" smooth="yes"/>
      <point x="245" y="66"/>
      <point x="180" y="128"/>
      <point x="180" y="267" type="curve" smooth="yes"/>
      <point x="180" y="714" type="line"/>
      <point x="90" y="714" type="line"/>
      <point x="90" y="254" type="line" smooth="yes"/>
      <point x="90" y="88"/>
      <point x="187" y="-10"/>
    </contour>
    <contour>
      <point x="622" y="218" type="curve"/>
      <point x="608" y="149" type="line"/>
      <point x="617" y="151"/>
      <point x="630" y="152"/>
      <point x="643" y="152" type="curve" smooth="yes"/>
      <point x="699" y="152"/>
      <point x="729" y="123"/>
      <point x="729" y="41" type="curve" smooth="yes"/>
      <point x="729" y="0" type="line"/>
      <point x="809" y="0" type="line"/>
      <point x="809" y="46" type="line" smooth="yes"/>
      <point x="809" y="170"/>
      <point x="754" y="222"/>
      <point x="656" y="222" type="curve" smooth="yes"/>
      <point x="645" y="222"/>
      <point x="633" y="221"/>
    </contour>
  </outline>
</glyph>
<glyph name="uni0533" format="2">
  <advance width="758"/>
  <unicode hex="0533"/>
  <note>
uni0533
</note>
  <outline>
    <contour>
      <point x="579" y="0" type="line"/>
      <point x="579" y="438" type="line" smooth="yes"/>
      <point x="579" y="630"/>
      <point x="487" y="724"/>
      <point x="322" y="724" type="curve" smooth="yes"/>
      <point x="158" y="724"/>
      <point x="65" y="640"/>
      <point x="65" y="495" type="curve" smooth="yes"/>
      <point x="65" y="347"/>
      <point x="157" y="265"/>
      <point x="336" y="265" type="curve" smooth="yes"/>
      <point x="736" y="265" type="line"/>
      <point x="736" y="341" type="line"/>
      <point x="346" y="341" type="line" smooth="yes"/>
      <point x="215" y="341"/>
      <point x="158" y="393"/>
      <point x="158" y="495" type="curve" smooth="yes"/>
      <point x="158" y="596"/>
      <point x="214" y="648"/>
      <point x="322" y="648" type="curve" smooth="yes"/>
      <point x="431" y="648"/>
      <point x="489" y="575"/>
      <point x="489" y="436" type="curve" smooth="yes"/>
      <point x="489" y="0" type="line"/>
    </contour>
  </outline>
</glyph>
<glyph name="uni0534" format="2">
  <advance width="764"/>
  <unicode hex="0534"/>
  <note>
uni0534
</note>
  <outline>
    <contour>
      <point x="584" y="0" type="line"/>
      <point x="584" y="461" type="line" smooth="yes"/>
      <point x="584" y="629"/>
      <point x="489" y="724"/>
      <point x="323" y="724" type="curve" smooth="yes"/>
      <point x="146" y="724"/>
      <point x="59" y="621"/>
      <point x="59" y="445" type="curve"/>
      <point x="149" y="445" type="line"/>
      <point x="149" y="583"/>
      <point x="204" y="648"/>
      <point x="321" y="648" type="curve" smooth="yes"/>
      <point x="433" y="648"/>
      <point x="494" y="588"/>
      <point x="494" y="453" type="curve" smooth="yes"/>
      <point x="494" y="0" type="line"/>
    </contour>
    <contour>
      <point x="569" y="341" type="line"/>
      <point x="569" y="265" type="line"/>
      <point x="732" y="265" type="line"/>
      <point x="732" y="341" type="line"/>
    </contour>
  </outline>
</glyph>
<glyph name="uni0535" format="2">
  <advance width="696"/>
  <unicode hex="0535"/>
  <note>
uni0535
</note>
  <outline>
    <contour>
      <point x="90" y="714" type="line"/>
      <point x="90" y="252" type="line" smooth="yes"/>
      <point x="90" y="89"/>
      <point x="186" y="-10"/>
      <point x="360" y="-10" type="curve" smooth="yes"/>
      <point x="538" y="-10"/>
      <point x="625" y="87"/>
      <point x="625" y="269" type="curve"/>
      <point x="535" y="269" type="line"/>
      <point x="535" y="130"/>
      <point x="479" y="66"/>
      <point x="357" y="66" type="curve" smooth="yes"/>
      <point x="241" y="66"/>
      <point x="180" y="130"/>
      <point x="180" y="261" type="curve" smooth="yes"/>
      <point x="180" y="714" type="line"/>
    </contour>
    <contour>
      <point x="169" y="528" type="line"/>
      <point x="628" y="528" type="line"/>
      <point x="628" y="604" type="line"/>
      <point x="169" y="604" type="line"/>
    </contour>
  </outline>
</glyph>
<glyph name="uni0536" format="2">
  <advance width="670"/>
  <unicode hex="0536"/>
  <note>
uni0536
</note>
  <outline>
    <contour>
      <point x="308" y="287" type="curve" smooth="yes"/>
      <point x="469" y="287"/>
      <point x="572" y="395"/>
      <point x="572" y="498" type="curve" smooth="yes"/>
      <point x="572" y="635"/>
      <point x="484" y="729"/>
      <point x="322" y="729" type="curve" smooth="yes"/>
      <point x="165" y="729"/>
      <point x="66" y="640"/>
      <point x="66" y="508" type="curve" smooth="yes"/>
      <point x="66" y="379"/>
      <point x="160" y="287"/>
    </contour>
    <contour>
      <point x="551" y="0" type="line"/>
      <point x="630" y="0" type="line"/>
      <point x="630" y="58" type="line" smooth="yes"/>
      <point x="630" y="139"/>
      <point x="590" y="170"/>
      <point x="518" y="170" type="curve" smooth="yes"/>
      <point x="152" y="170" type="line"/>
      <point x="152" y="227" type="line"/>
      <point x="73" y="227" type="line"/>
      <point x="73" y="0" type="line"/>
      <point x="152" y="0" type="line"/>
      <point x="152" y="94" type="line"/>
      <point x="488" y="94" type="line" smooth="yes"/>
      <point x="532" y="94"/>
      <point x="551" y="80"/>
      <point x="551" y="36" type="curve" smooth="yes"/>
    </contour>
    <contour>
      <point x="157" y="110" type="line"/>
      <point x="358" y="110"/>
      <point x="570" y="244"/>
      <point x="571" y="498" type="curve"/>
      <point x="489" y="498" type="line"/>
      <point x="489" y="286"/>
      <point x="323" y="170"/>
      <point x="157" y="170" type="curve"/>
    </contour>
    <contour>
      <point x="318" y="361" type="curve" smooth="yes"/>
      <point x="209" y="361"/>
      <point x="156" y="419"/>
      <point x="156" y="508" type="curve" smooth="yes"/>
      <point x="156" y="602"/>
      <point x="214" y="655"/>
      <point x="321" y="655" type="curve" smooth="yes"/>
      <point x="433" y="655"/>
      <point x="481" y="595"/>
      <point x="481" y="508" type="curve" smooth="yes"/>
      <point x="481" y="420"/>
      <point x="430" y="361"/>
    </contour>
  </outline>
</glyph>
<glyph name="uni0537" format="2">
  <advance width="629"/>
  <unicode hex="0537"/>
  <note>
uni0537
</note>
  <outline>
    <contour>
      <point x="164" y="492" type="line"/>
      <point x="164" y="416" type="line"/>
      <point x="550" y="416" type="line"/>
      <point x="550" y="492" type="line"/>
    </contour>
    <contour>
      <point x="409" y="0" type="line" smooth="yes"/>
      <point x="453" y="0"/>
      <point x="475" y="-23"/>
      <point x="475" y="-72" type="curve" smooth="yes"/>
      <point x="475" y="-143" type="line"/>
      <point x="565" y="-143" type="line"/>
      <point x="565" y="-64" type="line" smooth="yes"/>
      <point x="565" y="28"/>
      <point x="513" y="76"/>
      <point x="419" y="76" type="curve" smooth="yes"/>
      <point x="186" y="76" type="line"/>
      <point x="186" y="714" type="line"/>
      <point x="96" y="714" type="line"/>
      <point x="96" y="0" type="line"/>
    </contour>
  </outline>
</glyph>
<glyph name="uni0538" format="2">
  <advance width="696"/>
  <unicode hex="0538"/>
  <note>
uni0538
</note>
  <outline>
    <contour>
      <point x="90" y="0" type="line"/>
      <point x="180" y="0" type="line"/>
      <point x="180" y="453" type="line" smooth="yes"/>
      <point x="180" y="585"/>
      <point x="241" y="648"/>
      <point x="357" y="648" type="curve" smooth="yes"/>
      <point x="479" y="648"/>
      <point x="535" y="585"/>
      <point x="535" y="445" type="curve"/>
      <point x="625" y="445" type="line"/>
      <point x="625" y="627"/>
      <point x="538" y="724"/>
      <point x="360" y="724" type="curve" smooth="yes"/>
      <point x="186" y="724"/>
      <point x="90" y="625"/>
      <point x="90" y="462" type="curve" smooth="yes"/>
    </contour>
    <contour>
      <point x="169" y="76" type="line"/>
      <point x="169" y="0" type="line"/>
      <point x="628" y="0" type="line"/>
      <point x="628" y="76" type="line"/>
    </contour>
  </outline>
</glyph>
<glyph name="uni0539" format="2">
  <advance width="811"/>
  <unicode hex="0539"/>
  <note>
uni0539
</note>
  <outline>
    <contour>
      <point x="90" y="0" type="line"/>
      <point x="180" y="0" type="line"/>
      <point x="180" y="437" type="line" smooth="yes"/>
      <point x="180" y="574"/>
      <point x="257" y="648"/>
      <point x="393" y="648" type="curve" smooth="yes"/>
      <point x="540" y="648"/>
      <point x="607" y="580"/>
      <point x="607" y="440" type="curve"/>
      <point x="697" y="440" type="line"/>
      <point x="697" y="622"/>
      <point x="599" y="724"/>
      <point x="396" y="724" type="curve" smooth="yes"/>
      <point x="203" y="724"/>
      <point x="90" y="614"/>
      <point x="90" y="434" type="curve" smooth="yes"/>
    </contour>
    <contour>
      <point x="814" y="485" type="line"/>
      <point x="534" y="485" type="line" smooth="yes"/>
      <point x="394" y="485"/>
      <point x="320" y="428"/>
      <point x="320" y="317" type="curve" smooth="yes"/>
      <point x="320" y="214"/>
      <point x="392" y="150"/>
      <point x="502" y="150" type="curve" smooth="yes"/>
      <point x="626" y="150"/>
      <point x="697" y="229"/>
      <point x="697" y="409" type="curve"/>
      <point x="814" y="409" type="line"/>
    </contour>
    <contour>
      <point x="607" y="409" type="line"/>
      <point x="607" y="269"/>
      <point x="571" y="226"/>
      <point x="504" y="226" type="curve" smooth="yes"/>
      <point x="445" y="226"/>
      <point x="413" y="261"/>
      <point x="413" y="318" type="curve" smooth="yes"/>
      <point x="413" y="381"/>
      <point x="458" y="409"/>
      <point x="535" y="409" type="curve" smooth="yes"/>
    </contour>
  </outline>
</glyph>
<glyph name="uni053A" format="2">
  <advance width="765"/>
  <unicode hex="053A"/>
  <note>
uni053A
</note>
  <outline>
    <contour>
      <point x="595" y="714" type="line"/>
      <point x="505" y="714" type="line"/>
      <point x="505" y="278" type="line" smooth="yes"/>
      <point x="505" y="139"/>
      <point x="444" y="66"/>
      <point x="329" y="66" type="curve" smooth="yes"/>
      <point x="217" y="66"/>
      <point x="158" y="125"/>
      <point x="158" y="237" type="curve"/>
      <point x="65" y="237" type="line"/>
      <point x="65" y="81"/>
      <point x="161" y="-10"/>
      <point x="329" y="-10" type="curve" smooth="yes"/>
      <point x="500" y="-10"/>
      <point x="595" y="84"/>
      <point x="595" y="276" type="curve" smooth="yes"/>
    </contour>
    <contour>
      <point x="336" y="491" type="line" smooth="yes"/>
      <point x="167" y="491"/>
      <point x="65" y="397"/>
      <point x="65" y="237" type="curve"/>
      <point x="158" y="237" type="line"/>
      <point x="158" y="355"/>
      <point x="225" y="415"/>
      <point x="346" y="415" type="curve" smooth="yes"/>
      <point x="736" y="415" type="line"/>
      <point x="736" y="491" type="line"/>
    </contour>
  </outline>
</glyph>
<glyph name="uni053B" format="2">
  <advance width="702"/>
  <unicode hex="053B"/>
  <note>
uni053B
</note>
  <outline>
    <contour>
      <point x="96" y="714" type="line"/>
      <point x="96" y="0" type="line"/>
      <point x="186" y="0" type="line"/>
      <point x="186" y="397" type="line"/>
      <point x="181" y="397" type="line"/>
      <point x="184" y="439"/>
      <point x="186" y="475"/>
      <point x="186" y="515" type="curve" smooth="yes"/>
      <point x="186" y="714" type="line"/>
    </contour>
    <contour>
      <point x="175" y="204" type="line"/>
      <point x="186" y="204" type="line"/>
      <point x="186" y="255" type="line" smooth="yes"/>
      <point x="186" y="383"/>
      <point x="265" y="449"/>
      <point x="382" y="449" type="curve" smooth="yes"/>
      <point x="494" y="449"/>
      <point x="552" y="389"/>
      <point x="552" y="270" type="curve" smooth="yes"/>
      <point x="552" y="235" type="line"/>
      <point x="642" y="235" type="line"/>
      <point x="642" y="276" type="line" smooth="yes"/>
      <point x="642" y="432"/>
      <point x="554" y="525"/>
      <point x="402" y="525" type="curve" smooth="yes"/>
      <point x="279" y="525"/>
      <point x="196" y="474"/>
      <point x="175" y="357" type="curve"/>
    </contour>
  </outline>
</glyph>
<glyph name="uni053C" format="2">
  <advance width="412"/>
  <unicode hex="053C"/>
  <note>
uni053C
</note>
  <outline>
    <contour>
      <point x="96" y="0" type="line"/>
      <point x="389" y="0" type="line"/>
      <point x="389" y="76" type="line"/>
      <point x="186" y="76" type="line"/>
      <point x="186" y="714" type="line"/>
      <point x="96" y="714" type="line"/>
    </contour>
  </outline>
</glyph>
<glyph name="uni053D" format="2">
  <advance width="819"/>
  <unicode hex="053D"/>
  <note>
uni053D
</note>
  <outline>
    <contour>
      <point x="96" y="0" type="line"/>
      <point x="186" y="0" type="line"/>
      <point x="186" y="714" type="line"/>
      <point x="96" y="714" type="line"/>
    </contour>
    <contour>
      <point x="370" y="526" type="line"/>
      <point x="370" y="378" type="line" smooth="yes"/>
      <point x="370" y="240"/>
      <point x="436" y="169"/>
      <point x="572" y="169" type="curve" smooth="yes"/>
      <point x="701" y="169"/>
      <point x="771" y="244"/>
      <point x="771" y="384" type="curve" smooth="yes"/>
      <point x="771" y="526" type="line"/>
      <point x="681" y="526" type="line"/>
      <point x="681" y="390" type="line" smooth="yes"/>
      <point x="681" y="288"/>
      <point x="647" y="245"/>
      <point x="572" y="245" type="curve" smooth="yes"/>
      <point x="495" y="245"/>
      <point x="460" y="289"/>
      <point x="460" y="390" type="curve" smooth="yes"/>
      <point x="460" y="526" type="line"/>
    </contour>
    <contour>
      <point x="135" y="526" type="line"/>
      <point x="135" y="449" type="line"/>
      <point x="431" y="449" type="line"/>
      <point x="431" y="526" type="line"/>
    </contour>
  </outline>
</glyph>
<glyph name="uni053E" format="2">
  <advance width="711"/>
  <unicode hex="053E"/>
  <note>
uni053E
</note>
  <outline>
    <contour>
      <point x="68" y="269" type="curve" smooth="yes"/>
      <point x="68" y="101"/>
      <point x="172" y="-10"/>
      <point x="354" y="-10" type="curve" smooth="yes"/>
      <point x="533" y="-10"/>
      <point x="645" y="103"/>
      <point x="645" y="268" type="curve" smooth="yes"/>
      <point x="645" y="420"/>
      <point x="549" y="536"/>
      <point x="309" y="600" type="curve" smooth="yes"/>
      <point x="179" y="635"/>
      <point x="152" y="658"/>
      <point x="149" y="714" type="curve"/>
      <point x="60" y="714" type="line"/>
      <point x="63" y="619"/>
      <point x="110" y="580"/>
      <point x="274" y="535" type="curve" smooth="yes"/>
      <point x="480" y="478"/>
      <point x="554" y="391"/>
      <point x="554" y="268" type="curve" smooth="yes"/>
      <point x="554" y="146"/>
      <point x="483" y="66"/>
      <point x="354" y="66" type="curve" smooth="yes"/>
      <point x="228" y="66"/>
      <point x="159" y="145"/>
      <point x="159" y="270" type="curve" smooth="yes"/>
      <point x="159" y="478"/>
      <point x="414" y="648"/>
      <point x="651" y="648" type="curve"/>
      <point x="651" y="724" type="line"/>
      <point x="375" y="724"/>
      <point x="68" y="515"/>
    </contour>
  </outline>
</glyph>
<glyph name="uni053F" format="2">
  <advance width="709"/>
  <unicode hex="053F"/>
  <note>
uni053F
</note>
  <outline>
    <contour>
      <point x="616" y="0" type="line"/>
      <point x="616" y="576" type="line"/>
      <point x="526" y="576" type="line"/>
      <point x="526" y="329" type="line"/>
      <point x="531" y="329" type="line"/>
      <point x="528" y="287"/>
      <point x="526" y="242"/>
      <point x="526" y="210" type="curve" smooth="yes"/>
      <point x="526" y="0" type="line"/>
    </contour>
    <contour>
      <point x="559" y="561" type="line"/>
      <point x="526" y="561" type="line"/>
      <point x="526" y="514" type="line" smooth="yes"/>
      <point x="526" y="369"/>
      <point x="465" y="289"/>
      <point x="334" y="289" type="curve" smooth="yes"/>
      <point x="217" y="289"/>
      <point x="169" y="354"/>
      <point x="169" y="482" type="curve" smooth="yes"/>
      <point x="169" y="714" type="line"/>
      <point x="79" y="714" type="line"/>
      <point x="79" y="463" type="line" smooth="yes"/>
      <point x="79" y="294"/>
      <point x="159" y="213"/>
      <point x="309" y="213" type="curve" smooth="yes"/>
      <point x="462" y="213"/>
      <point x="559" y="307"/>
      <point x="559" y="459" type="curve" smooth="yes"/>
    </contour>
  </outline>
</glyph>
<glyph name="uni0540" format="2">
  <advance width="575"/>
  <unicode hex="0540"/>
  <note>
uni0540
</note>
  <outline>
    <contour>
      <point x="495" y="610" type="curve"/>
      <point x="543" y="675" type="line"/>
      <point x="495" y="709"/>
      <point x="440" y="724"/>
      <point x="380" y="724" type="curve" smooth="yes"/>
      <point x="235" y="724"/>
      <point x="154" y="653"/>
      <point x="123" y="496" type="curve" smooth="yes"/>
      <point x="43" y="86" type="line"/>
      <point x="131" y="73" type="line"/>
      <point x="211" y="478" type="line" smooth="yes"/>
      <point x="235" y="599"/>
      <point x="282" y="648"/>
      <point x="380" y="648" type="curve" smooth="yes"/>
      <point x="423" y="648"/>
      <point x="462" y="634"/>
    </contour>
    <contour>
      <point x="43" y="86" type="line"/>
      <point x="350" y="27" type="line" smooth="yes"/>
      <point x="397" y="18"/>
      <point x="424" y="-12"/>
      <point x="424" y="-62" type="curve" smooth="yes"/>
      <point x="424" y="-94" type="line"/>
      <point x="514" y="-94" type="line"/>
      <point x="514" y="-50" type="line" smooth="yes"/>
      <point x="514" y="30"/>
      <point x="475" y="79"/>
      <point x="369" y="100" type="curve" smooth="yes"/>
      <point x="76" y="159" type="line"/>
    </contour>
  </outline>
</glyph>
<glyph name="uni0541" format="2">
  <advance width="649"/>
  <unicode hex="0541"/>
  <note>
uni0541
</note>
  <outline>
    <contour>
      <point x="308" y="729" type="curve" smooth="yes"/>
      <point x="149" y="729"/>
      <point x="50" y="643"/>
      <point x="50" y="513" type="curve" smooth="yes"/>
      <point x="50" y="384"/>
      <point x="144" y="304"/>
      <point x="284" y="304" type="curve" smooth="yes"/>
      <point x="354" y="304"/>
      <point x="427" y="323"/>
      <point x="484" y="353" type="curve"/>
      <point x="484" y="422" type="line"/>
      <point x="444" y="393"/>
      <point x="359" y="372"/>
      <point x="284" y="372" type="curve" smooth="yes"/>
      <point x="194" y="372"/>
      <point x="140" y="424"/>
      <point x="140" y="513" type="curve" smooth="yes"/>
      <point x="140" y="604"/>
      <point x="198" y="655"/>
      <point x="308" y="655" type="curve" smooth="yes"/>
      <point x="423" y="655"/>
      <point x="472" y="564"/>
      <point x="472" y="442" type="curve" smooth="yes"/>
      <point x="472" y="200"/>
      <point x="359" y="58"/>
      <point x="219" y="58" type="curve"/>
      <point x="219" y="-10" type="line"/>
      <point x="407" y="-10"/>
      <point x="562" y="160"/>
      <point x="562" y="440" type="curve" smooth="yes"/>
      <point x="562" y="609"/>
      <point x="474" y="729"/>
    </contour>
    <contour>
      <point x="604" y="-15" type="curve"/>
      <point x="604" y="77" type="line"/>
      <point x="471" y="206"/>
      <point x="355" y="250"/>
      <point x="231" y="250" type="curve" smooth="yes"/>
      <point x="117" y="250"/>
      <point x="50" y="203"/>
      <point x="50" y="119" type="curve" smooth="yes"/>
      <point x="50" y="34"/>
      <point x="107" y="-10"/>
      <point x="219" y="-10" type="curve"/>
      <point x="219" y="58" type="line"/>
      <point x="168" y="58"/>
      <point x="135" y="79"/>
      <point x="135" y="119" type="curve" smooth="yes"/>
      <point x="135" y="162"/>
      <point x="168" y="182"/>
      <point x="232" y="182" type="curve" smooth="yes"/>
      <point x="332" y="182"/>
      <point x="470" y="118"/>
    </contour>
  </outline>
</glyph>
<glyph name="uni0542" format="2">
  <advance width="764"/>
  <unicode hex="0542"/>
  <note>
uni0542
</note>
  <outline>
    <contour>
      <point x="564" y="0" type="line"/>
      <point x="564" y="461" type="line" smooth="yes"/>
      <point x="564" y="629"/>
      <point x="471" y="724"/>
      <point x="313" y="724" type="curve" smooth="yes"/>
      <point x="144" y="724"/>
      <point x="59" y="621"/>
      <point x="59" y="445" type="curve"/>
      <point x="149" y="445" type="line"/>
      <point x="149" y="584"/>
      <point x="201" y="648"/>
      <point x="311" y="648" type="curve" smooth="yes"/>
      <point x="415" y="648"/>
      <point x="474" y="589"/>
      <point x="474" y="453" type="curve" smooth="yes"/>
      <point x="474" y="0" type="line"/>
    </contour>
    <contour>
      <point x="549" y="76" type="line"/>
      <point x="549" y="0" type="line"/>
      <point x="732" y="0" type="line"/>
      <point x="732" y="76" type="line"/>
    </contour>
  </outline>
</glyph>
<glyph name="uni0543" format="2">
  <advance width="688"/>
  <unicode hex="0543"/>
  <note>
uni0543
</note>
  <outline>
    <contour>
      <point x="622" y="648" type="curve"/>
      <point x="622" y="724" type="line"/>
      <point x="289" y="686"/>
      <point x="61" y="408"/>
      <point x="61" y="167" type="curve" smooth="yes"/>
      <point x="61" y="65"/>
      <point x="108" y="0"/>
      <point x="246" y="0" type="curve" smooth="yes"/>
      <point x="618" y="0" type="line"/>
      <point x="618" y="179" type="line" smooth="yes"/>
      <point x="618" y="420"/>
      <point x="550" y="568"/>
      <point x="302" y="611" type="curve" smooth="yes"/>
      <point x="68" y="652" type="line"/>
      <point x="68" y="575" type="line"/>
      <point x="274" y="539" type="line" smooth="yes"/>
      <point x="467" y="505"/>
      <point x="527" y="396"/>
      <point x="527" y="209" type="curve" smooth="yes"/>
      <point x="527" y="76" type="line"/>
      <point x="261" y="76" type="line" smooth="yes"/>
      <point x="185" y="76"/>
      <point x="152" y="104"/>
      <point x="152" y="182" type="curve" smooth="yes"/>
      <point x="152" y="383"/>
      <point x="347" y="609"/>
    </contour>
  </outline>
</glyph>
<glyph name="uni0544" format="2">
  <advance width="804"/>
  <unicode hex="0544"/>
  <note>
uni0544
</note>
  <outline>
    <contour>
      <point x="363" y="-10" type="curve" smooth="yes"/>
      <point x="532" y="-10"/>
      <point x="635" y="85"/>
      <point x="635" y="253" type="curve" smooth="yes"/>
      <point x="635" y="638" type="line"/>
      <point x="782" y="638" type="line"/>
      <point x="782" y="714" type="line"/>
      <point x="545" y="714" type="line"/>
      <point x="545" y="261" type="line" smooth="yes"/>
      <point x="545" y="125"/>
      <point x="476" y="66"/>
      <point x="362" y="66" type="curve" smooth="yes"/>
      <point x="242" y="66"/>
      <point x="180" y="131"/>
      <point x="180" y="267" type="curve" smooth="yes"/>
      <point x="180" y="714" type="line"/>
      <point x="90" y="714" type="line"/>
      <point x="90" y="253" type="line" smooth="yes"/>
      <point x="90" y="93"/>
      <point x="184" y="-10"/>
    </contour>
  </outline>
</glyph>
<glyph name="uni0545" format="2">
  <advance width="627"/>
  <unicode hex="0545"/>
  <note>
uni0545
</note>
  <outline>
    <contour>
      <point x="548" y="549" type="curve" smooth="yes"/>
      <point x="548" y="657"/>
      <point x="468" y="724"/>
      <point x="333" y="724" type="curve" smooth="yes"/>
      <point x="230" y="724"/>
      <point x="147" y="694"/>
      <point x="86" y="648" type="curve"/>
      <point x="127" y="584" type="line"/>
      <point x="180" y="626"/>
      <point x="243" y="648"/>
      <point x="317" y="648" type="curve" smooth="yes"/>
      <point x="409" y="648"/>
      <point x="458" y="608"/>
      <point x="458" y="537" type="curve" smooth="yes"/>
      <point x="458" y="452"/>
      <point x="383" y="410"/>
      <point x="239" y="410" type="curve" smooth="yes"/>
      <point x="44" y="410" type="line"/>
      <point x="44" y="334" type="line"/>
      <point x="253" y="334" type="line" smooth="yes"/>
      <point x="410" y="334"/>
      <point x="477" y="296"/>
      <point x="477" y="204" type="curve" smooth="yes"/>
      <point x="477" y="120"/>
      <point x="420" y="66"/>
      <point x="300" y="66" type="curve" smooth="yes"/>
      <point x="227" y="66"/>
      <point x="138" y="84"/>
      <point x="86" y="112" type="curve"/>
      <point x="86" y="30" type="line"/>
      <point x="139" y="6"/>
      <point x="220" y="-10"/>
      <point x="311" y="-10" type="curve" smooth="yes"/>
      <point x="480" y="-10"/>
      <point x="570" y="75"/>
      <point x="570" y="199" type="curve" smooth="yes"/>
      <point x="570" y="299"/>
      <point x="507" y="359"/>
      <point x="387" y="373" type="curve"/>
      <point x="387" y="376" type="line"/>
      <point x="483" y="391"/>
      <point x="548" y="454"/>
    </contour>
  </outline>
</glyph>
<glyph name="uni0546" format="2">
  <advance width="628"/>
  <unicode hex="0546"/>
  <note>
uni0546
</note>
  <outline>
    <contour>
      <point x="319" y="-10" type="curve" smooth="yes"/>
      <point x="469" y="-10"/>
      <point x="558" y="72"/>
      <point x="558" y="221" type="curve" smooth="yes"/>
      <point x="558" y="418" type="line"/>
      <point x="468" y="418" type="line"/>
      <point x="468" y="227" type="line" smooth="yes"/>
      <point x="468" y="122"/>
      <point x="422" y="66"/>
      <point x="319" y="66" type="curve" smooth="yes"/>
      <point x="215" y="66"/>
      <point x="162" y="135"/>
      <point x="162" y="242" type="curve"/>
      <point x="72" y="242" type="line"/>
      <point x="72" y="88"/>
      <point x="158" y="-10"/>
    </contour>
    <contour>
      <point x="277" y="631" type="line"/>
      <point x="213" y="631" type="line" smooth="yes"/>
      <point x="162" y="631"/>
      <point x="137" y="650"/>
      <point x="137" y="714" type="curve" smooth="yes"/>
      <point x="137" y="760" type="line"/>
      <point x="47" y="760" type="line"/>
      <point x="47" y="714" type="line" smooth="yes"/>
      <point x="47" y="617"/>
      <point x="92" y="577"/>
      <point x="174" y="577" type="curve" smooth="yes"/>
      <point x="227" y="577" type="line"/>
      <point x="286" y="617" type="line"/>
    </contour>
    <contour>
      <point x="162" y="242" type="line"/>
      <point x="162" y="380"/>
      <point x="225" y="536"/>
      <point x="286" y="617" type="curve"/>
      <point x="200" y="617" type="line"/>
      <point x="138" y="537"/>
      <point x="72" y="398"/>
      <point x="72" y="242" type="curve"/>
    </contour>
  </outline>
</glyph>
<glyph name="uni0547" format="2">
  <advance width="654"/>
  <unicode hex="0547"/>
  <note>
uni0547
</note>
  <outline>
    <contour>
      <point x="400" y="605" type="curve"/>
      <point x="305" y="626" type="line"/>
      <point x="177" y="551"/>
      <point x="69" y="396"/>
      <point x="69" y="257" type="curve" smooth="yes"/>
      <point x="69" y="97"/>
      <point x="167" y="-10"/>
      <point x="328" y="-10" type="curve" smooth="yes"/>
      <point x="494" y="-10"/>
      <point x="583" y="88"/>
      <point x="583" y="239" type="curve" smooth="yes"/>
      <point x="583" y="296" type="line"/>
      <point x="492" y="296" type="line"/>
      <point x="492" y="244" type="line" smooth="yes"/>
      <point x="492" y="136"/>
      <point x="446" y="66"/>
      <point x="328" y="66" type="curve" smooth="yes"/>
      <point x="224" y="66"/>
      <point x="159" y="143"/>
      <point x="159" y="257" type="curve" smooth="yes"/>
      <point x="159" y="389"/>
      <point x="263" y="524"/>
    </contour>
    <contour>
      <point x="84" y="724" type="line"/>
      <point x="73" y="649" type="line"/>
      <point x="575" y="552" type="line"/>
      <point x="586" y="628" type="line"/>
    </contour>
  </outline>
</glyph>
<glyph name="uni0548" format="2">
  <advance width="725"/>
  <unicode hex="0548"/>
  <note>
uni0548
</note>
  <anchor x="362" y="714" name="top"/>
  <outline>
    <contour>
      <point x="90" y="0" type="line"/>
      <point x="180" y="0" type="line"/>
      <point x="180" y="454" type="line" smooth="yes"/>
      <point x="180" y="585"/>
      <point x="246" y="648"/>
      <point x="362" y="648" type="curve" smooth="yes"/>
      <point x="480" y="648"/>
      <point x="545" y="587"/>
      <point x="545" y="448" type="curve" smooth="yes"/>
      <point x="545" y="0" type="line"/>
      <point x="635" y="0" type="line"/>
      <point x="635" y="460" type="line" smooth="yes"/>
      <point x="635" y="626"/>
      <point x="538" y="724"/>
      <point x="365" y="724" type="curve" smooth="yes"/>
      <point x="191" y="724"/>
      <point x="90" y="625"/>
      <point x="90" y="462" type="curve" smooth="yes"/>
    </contour>
  </outline>
</glyph>
<glyph name="uni0549" format="2">
  <advance width="634"/>
  <unicode hex="0549"/>
  <note>
uni0549
</note>
  <outline>
    <contour>
      <point x="315" y="95" type="line"/>
      <point x="474" y="201"/>
      <point x="575" y="335"/>
      <point x="575" y="468" type="curve" smooth="yes"/>
      <point x="575" y="622"/>
      <point x="482" y="726"/>
      <point x="319" y="726" type="curve" smooth="yes"/>
      <point x="153" y="726"/>
      <point x="62" y="631"/>
      <point x="62" y="487" type="curve" smooth="yes"/>
      <point x="62" y="470" type="line"/>
      <point x="152" y="470" type="line"/>
      <point x="152" y="482" type="line" smooth="yes"/>
      <point x="152" y="581"/>
      <point x="201" y="650"/>
      <point x="319" y="650" type="curve" smooth="yes"/>
      <point x="425" y="650"/>
      <point x="485" y="573"/>
      <point x="485" y="465" type="curve" smooth="yes"/>
      <point x="485" y="353"/>
      <point x="402" y="249"/>
      <point x="248" y="138" type="curve"/>
    </contour>
    <contour>
      <point x="536" y="-1" type="curve"/>
      <point x="536" y="77" type="line"/>
      <point x="379" y="83"/>
      <point x="218" y="178"/>
      <point x="102" y="291" type="curve"/>
      <point x="50" y="231" type="line"/>
      <point x="187" y="100"/>
      <point x="357" y="5"/>
    </contour>
  </outline>
</glyph>
<glyph name="uni054A" format="2">
  <advance width="793"/>
  <unicode hex="054A"/>
  <note>
uni054A
</note>
  <outline>
    <contour>
      <point x="82" y="330" type="line"/>
      <point x="172" y="330" type="line"/>
      <point x="172" y="453" type="line" smooth="yes"/>
      <point x="172" y="585"/>
      <point x="249" y="648"/>
      <point x="393" y="648" type="curve" smooth="yes"/>
      <point x="534" y="648"/>
      <point x="613" y="587"/>
      <point x="613" y="447" type="curve" smooth="yes"/>
      <point x="613" y="0" type="line"/>
      <point x="703" y="0" type="line"/>
      <point x="703" y="460" type="line" smooth="yes"/>
      <point x="703" y="626"/>
      <point x="593" y="724"/>
      <point x="396" y="724" type="curve" smooth="yes"/>
      <point x="196" y="724"/>
      <point x="82" y="625"/>
      <point x="82" y="462" type="curve" smooth="yes"/>
    </contour>
    <contour>
      <point x="347" y="167" type="line"/>
      <point x="438" y="167" type="line"/>
      <point x="438" y="677" type="line"/>
      <point x="347" y="677" type="line"/>
    </contour>
  </outline>
</glyph>
<glyph name="uni054B" format="2">
  <advance width="642"/>
  <unicode hex="054B"/>
  <note>
uni054B
</note>
  <outline>
    <contour>
      <point x="510" y="0" type="line"/>
      <point x="595" y="0" type="line"/>
      <point x="595" y="58" type="line" smooth="yes"/>
      <point x="595" y="139"/>
      <point x="555" y="170"/>
      <point x="483" y="170" type="curve" smooth="yes"/>
      <point x="144" y="170" type="line"/>
      <point x="144" y="221" type="line"/>
      <point x="67" y="221" type="line"/>
      <point x="67" y="0" type="line"/>
      <point x="144" y="0" type="line"/>
      <point x="144" y="94" type="line"/>
      <point x="447" y="94" type="line" smooth="yes"/>
      <point x="491" y="94"/>
      <point x="510" y="80"/>
      <point x="510" y="36" type="curve" smooth="yes"/>
    </contour>
    <contour>
      <point x="318" y="218" type="curve"/>
      <point x="312" y="271"/>
      <point x="284" y="305"/>
      <point x="235" y="345" type="curve" smooth="yes"/>
      <point x="181" y="389"/>
      <point x="155" y="433"/>
      <point x="155" y="495" type="curve" smooth="yes"/>
      <point x="155" y="595"/>
      <point x="217" y="650"/>
      <point x="323" y="650" type="curve" smooth="yes"/>
      <point x="428" y="650"/>
      <point x="485" y="596"/>
      <point x="485" y="484" type="curve" smooth="yes"/>
      <point x="485" y="375"/>
      <point x="422" y="288"/>
    </contour>
    <contour>
      <point x="196" y="170" type="curve"/>
      <point x="360" y="170" type="line"/>
      <point x="516" y="273"/>
      <point x="575" y="368"/>
      <point x="575" y="488" type="curve" smooth="yes"/>
      <point x="575" y="643"/>
      <point x="477" y="724"/>
      <point x="323" y="724" type="curve" smooth="yes"/>
      <point x="165" y="724"/>
      <point x="64" y="637"/>
      <point x="64" y="497" type="curve" smooth="yes"/>
      <point x="64" y="414"/>
      <point x="93" y="359"/>
      <point x="173" y="300" type="curve" smooth="yes"/>
      <point x="233" y="255"/>
      <point x="247" y="222"/>
      <point x="249" y="183" type="curve"/>
      <point x="238" y="177"/>
      <point x="205" y="170"/>
    </contour>
  </outline>
</glyph>
<glyph name="uni054C" format="2">
  <advance width="805"/>
  <unicode hex="054C"/>
  <note>
uni054C
</note>
  <outline>
    <contour>
      <point x="90" y="0" type="line"/>
      <point x="180" y="0" type="line"/>
      <point x="180" y="453" type="line" smooth="yes"/>
      <point x="180" y="585"/>
      <point x="241" y="648"/>
      <point x="357" y="648" type="curve" smooth="yes"/>
      <point x="475" y="648"/>
      <point x="535" y="587"/>
      <point x="535" y="447" type="curve" smooth="yes"/>
      <point x="535" y="0" type="line"/>
      <point x="625" y="0" type="line"/>
      <point x="625" y="460" type="line" smooth="yes"/>
      <point x="625" y="626"/>
      <point x="534" y="724"/>
      <point x="360" y="724" type="curve" smooth="yes"/>
      <point x="186" y="724"/>
      <point x="90" y="625"/>
      <point x="90" y="462" type="curve" smooth="yes"/>
    </contour>
    <contour>
      <point x="610" y="341" type="line"/>
      <point x="610" y="265" type="line"/>
      <point x="773" y="265" type="line"/>
      <point x="773" y="341" type="line"/>
    </contour>
  </outline>
</glyph>
<glyph name="uni054D" format="2">
  <advance width="725"/>
  <unicode hex="054D"/>
  <note>
uni054D
</note>
  <outline>
    <contour>
      <point x="635" y="714" type="line"/>
      <point x="545" y="714" type="line"/>
      <point x="545" y="260" type="line" smooth="yes"/>
      <point x="545" y="129"/>
      <point x="479" y="66"/>
      <point x="363" y="66" type="curve" smooth="yes"/>
      <point x="245" y="66"/>
      <point x="180" y="127"/>
      <point x="180" y="266" type="curve" smooth="yes"/>
      <point x="180" y="714" type="line"/>
      <point x="90" y="714" type="line"/>
      <point x="90" y="254" type="line" smooth="yes"/>
      <point x="90" y="88"/>
      <point x="187" y="-10"/>
      <point x="360" y="-10" type="curve" smooth="yes"/>
      <point x="534" y="-10"/>
      <point x="635" y="89"/>
      <point x="635" y="252" type="curve" smooth="yes"/>
    </contour>
  </outline>
</glyph>
<glyph name="uni054E" format="2">
  <advance width="787"/>
  <unicode hex="054E"/>
  <note>
uni054E
</note>
  <outline>
    <contour>
      <point x="592" y="0" type="line"/>
      <point x="592" y="714" type="line"/>
      <point x="502" y="714" type="line"/>
      <point x="502" y="264" type="line"/>
      <point x="507" y="264" type="line"/>
      <point x="504" y="222"/>
      <point x="502" y="177"/>
      <point x="502" y="145" type="curve" smooth="yes"/>
      <point x="502" y="0" type="line"/>
    </contour>
    <contour>
      <point x="536" y="528" type="line"/>
      <point x="502" y="528" type="line"/>
      <point x="502" y="457" type="line" smooth="yes"/>
      <point x="502" y="312"/>
      <point x="449" y="232"/>
      <point x="318" y="232" type="curve" smooth="yes"/>
      <point x="201" y="232"/>
      <point x="155" y="295"/>
      <point x="155" y="424" type="curve" smooth="yes"/>
      <point x="155" y="480" type="line"/>
      <point x="65" y="480" type="line"/>
      <point x="65" y="406" type="line" smooth="yes"/>
      <point x="65" y="237"/>
      <point x="143" y="155"/>
      <point x="293" y="155" type="curve" smooth="yes"/>
      <point x="447" y="155"/>
      <point x="536" y="250"/>
      <point x="536" y="401" type="curve" smooth="yes"/>
    </contour>
    <contour>
      <point x="572" y="76" type="line"/>
      <point x="572" y="0" type="line"/>
      <point x="755" y="0" type="line"/>
      <point x="755" y="76" type="line"/>
    </contour>
  </outline>
</glyph>
<glyph name="uni054F" format="2">
  <advance width="571"/>
  <unicode hex="054F"/>
  <note>
uni054F
</note>
  <outline>
    <contour>
      <point x="519" y="189" type="curve" smooth="yes"/>
      <point x="519" y="304"/>
      <point x="445" y="355"/>
      <point x="306" y="400" type="curve" smooth="yes"/>
      <point x="196" y="436"/>
      <point x="148" y="462"/>
      <point x="148" y="536" type="curve" smooth="yes"/>
      <point x="148" y="611"/>
      <point x="207" y="648"/>
      <point x="299" y="648" type="curve" smooth="yes"/>
      <point x="352" y="648"/>
      <point x="409" y="638"/>
      <point x="479" y="607" type="curve"/>
      <point x="503" y="680" type="line"/>
      <point x="434" y="710"/>
      <point x="370" y="724"/>
      <point x="303" y="724" type="curve" smooth="yes"/>
      <point x="159" y="724"/>
      <point x="59" y="656"/>
      <point x="59" y="532" type="curve" smooth="yes"/>
      <point x="59" y="408"/>
      <point x="128" y="374"/>
      <point x="260" y="329" type="curve" smooth="yes"/>
      <point x="385" y="286"/>
      <point x="430" y="257"/>
      <point x="430" y="186" type="curve" smooth="yes"/>
      <point x="430" y="106"/>
      <point x="367" y="66"/>
      <point x="264" y="66" type="curve" smooth="yes"/>
      <point x="196" y="66"/>
      <point x="124" y="82"/>
      <point x="51" y="115" type="curve"/>
      <point x="51" y="31" type="line"/>
      <point x="109" y="8"/>
      <point x="177" y="-10"/>
      <point x="265" y="-10" type="curve" smooth="yes"/>
      <point x="416" y="-10"/>
      <point x="519" y="61"/>
    </contour>
  </outline>
</glyph>
<glyph name="uni0550" format="2">
  <advance width="673"/>
  <unicode hex="0550"/>
  <note>
uni0550
</note>
  <outline>
    <contour>
      <point x="90" y="0" type="line"/>
      <point x="180" y="0" type="line"/>
      <point x="180" y="453" type="line" smooth="yes"/>
      <point x="180" y="585"/>
      <point x="239" y="648"/>
      <point x="351" y="648" type="curve" smooth="yes"/>
      <point x="468" y="648"/>
      <point x="523" y="585"/>
      <point x="523" y="445" type="curve"/>
      <point x="613" y="445" type="line"/>
      <point x="613" y="627"/>
      <point x="528" y="724"/>
      <point x="354" y="724" type="curve" smooth="yes"/>
      <point x="184" y="724"/>
      <point x="90" y="625"/>
      <point x="90" y="462" type="curve" smooth="yes"/>
    </contour>
  </outline>
</glyph>
<glyph name="uni0551" format="2">
  <advance width="668"/>
  <unicode hex="0551"/>
  <note>
uni0551
</note>
  <outline>
    <contour>
      <point x="368" y="405" type="line"/>
      <point x="206" y="438"/>
      <point x="150" y="473"/>
      <point x="150" y="545" type="curve" smooth="yes"/>
      <point x="150" y="612"/>
      <point x="217" y="650"/>
      <point x="316" y="650" type="curve" smooth="yes"/>
      <point x="416" y="650"/>
      <point x="482" y="612"/>
      <point x="482" y="545" type="curve" smooth="yes"/>
      <point x="482" y="481"/>
      <point x="426" y="443"/>
      <point x="338" y="424" type="curve" smooth="yes"/>
      <point x="71" y="366" type="line"/>
      <point x="93" y="296" type="line"/>
      <point x="298" y="345" type="line"/>
      <point x="424" y="330"/>
      <point x="515" y="290"/>
      <point x="515" y="202" type="curve" smooth="yes"/>
      <point x="515" y="116"/>
      <point x="444" y="66"/>
      <point x="309" y="66" type="curve" smooth="yes"/>
      <point x="236" y="66"/>
      <point x="155" y="84"/>
      <point x="85" y="117" type="curve"/>
      <point x="85" y="36" type="line"/>
      <point x="142" y="10"/>
      <point x="225" y="-10"/>
      <point x="311" y="-10" type="curve" smooth="yes"/>
      <point x="497" y="-10"/>
      <point x="606" y="70"/>
      <point x="606" y="201" type="curve" smooth="yes"/>
      <point x="606" y="295"/>
      <point x="536" y="365"/>
      <point x="421" y="386" type="curve"/>
      <point x="421" y="389" type="line"/>
      <point x="513" y="416"/>
      <point x="572" y="471"/>
      <point x="572" y="550" type="curve" smooth="yes"/>
      <point x="572" y="659"/>
      <point x="477" y="724"/>
      <point x="316" y="724" type="curve" smooth="yes"/>
      <point x="165" y="724"/>
      <point x="60" y="659"/>
      <point x="60" y="550" type="curve" smooth="yes"/>
      <point x="60" y="454"/>
      <point x="125" y="390"/>
      <point x="296" y="355" type="curve"/>
    </contour>
  </outline>
</glyph>
<glyph name="uni0552" format="2">
  <advance width="598"/>
  <unicode hex="0552"/>
  <note>
uni0552
</note>
  <outline>
    <contour>
      <point x="96" y="0" type="line"/>
      <point x="186" y="0" type="line"/>
      <point x="186" y="461" type="line"/>
      <point x="221" y="461" type="line" smooth="yes"/>
      <point x="287" y="461"/>
      <point x="304" y="446"/>
      <point x="360" y="329" type="curve" smooth="yes"/>
      <point x="405" y="236"/>
      <point x="445" y="207"/>
      <point x="516" y="207" type="curve" smooth="yes"/>
      <point x="553" y="207" type="line"/>
      <point x="553" y="283" type="line"/>
      <point x="526" y="283" type="line" smooth="yes"/>
      <point x="484" y="283"/>
      <point x="469" y="294"/>
      <point x="418" y="395" type="curve" smooth="yes"/>
      <point x="358" y="513"/>
      <point x="332" y="537"/>
      <point x="229" y="537" type="curve" smooth="yes"/>
      <point x="186" y="537" type="line"/>
      <point x="186" y="714" type="line"/>
      <point x="96" y="714" type="line"/>
    </contour>
  </outline>
</glyph>
<glyph name="uni0553" format="2">
  <advance width="800"/>
  <unicode hex="0553"/>
  <note>
uni0553
</note>
  <outline>
    <contour>
      <point x="442" y="721" type="line"/>
      <point x="359" y="721" type="line"/>
      <point x="359" y="636" type="line"/>
      <point x="147" y="631"/>
      <point x="50" y="527"/>
      <point x="50" y="371" type="curve" smooth="yes"/>
      <point x="50" y="218"/>
      <point x="148" y="104"/>
      <point x="359" y="100" type="curve"/>
      <point x="359" y="-7" type="line"/>
      <point x="442" y="-7" type="line"/>
      <point x="442" y="100" type="line"/>
      <point x="651" y="104"/>
      <point x="751" y="220"/>
      <point x="751" y="374" type="curve" smooth="yes"/>
      <point x="751" y="536"/>
      <point x="648" y="632"/>
      <point x="442" y="636" type="curve"/>
    </contour>
    <contour>
      <point x="359" y="564" type="curve"/>
      <point x="359" y="172" type="line"/>
      <point x="214" y="176"/>
      <point x="136" y="242"/>
      <point x="136" y="371" type="curve" smooth="yes"/>
      <point x="136" y="493"/>
      <point x="209" y="559"/>
    </contour>
    <contour>
      <point x="441" y="564" type="line"/>
      <point x="594" y="559"/>
      <point x="664" y="497"/>
      <point x="664" y="374" type="curve" smooth="yes"/>
      <point x="664" y="244"/>
      <point x="585" y="176"/>
      <point x="441" y="172" type="curve"/>
    </contour>
  </outline>
</glyph>
<glyph name="uni0554" format="2">
  <advance width="617"/>
  <unicode hex="0554"/>
  <note>
uni0554
</note>
  <outline>
    <contour>
      <point x="100" y="0" type="line"/>
      <point x="190" y="0" type="line"/>
      <point x="190" y="329" type="line"/>
      <point x="296" y="329" type="line" smooth="yes"/>
      <point x="468" y="329"/>
      <point x="558" y="400"/>
      <point x="558" y="527" type="curve" smooth="yes"/>
      <point x="558" y="646"/>
      <point x="472" y="724"/>
      <point x="338" y="724" type="curve" smooth="yes"/>
      <point x="187" y="724"/>
      <point x="100" y="625"/>
      <point x="100" y="417" type="curve" smooth="yes"/>
    </contour>
    <contour>
      <point x="190" y="405" type="line"/>
      <point x="190" y="583"/>
      <point x="236" y="648"/>
      <point x="337" y="648" type="curve" smooth="yes"/>
      <point x="421" y="648"/>
      <point x="467" y="599"/>
      <point x="467" y="527" type="curve" smooth="yes"/>
      <point x="467" y="446"/>
      <point x="402" y="405"/>
      <point x="293" y="405" type="curve" smooth="yes"/>
    </contour>
    <contour>
      <point x="12" y="247" type="line"/>
      <point x="12" y="171" type="line"/>
      <point x="560" y="171" type="line"/>
      <point x="560" y="247" type="line"/>
    </contour>
  </outline>
</glyph>
<glyph name="uni0555" format="2">
  <advance width="776"/>
  <unicode hex="0555"/>
  <note>
uni0555
</note>
  <anchor x="388" y="714" name="top"/>
  <outline>
    <contour>
      <point x="715" y="358" type="curve" smooth="yes"/>
      <point x="715" y="585"/>
      <point x="606" y="725"/>
      <point x="391" y="725" type="curve" smooth="yes"/>
      <point x="171" y="725"/>
      <point x="61" y="577"/>
      <point x="61" y="359" type="curve" smooth="yes"/>
      <point x="61" y="140"/>
      <point x="167" y="-10"/>
      <point x="388" y="-10" type="curve" smooth="yes"/>
      <point x="610" y="-10"/>
      <point x="715" y="140"/>
    </contour>
    <contour>
      <point x="156" y="358" type="curve" smooth="yes"/>
      <point x="156" y="532"/>
      <point x="230" y="649"/>
      <point x="392" y="649" type="curve" smooth="yes"/>
      <point x="545" y="649"/>
      <point x="621" y="542"/>
      <point x="621" y="358" type="curve" smooth="yes"/>
      <point x="621" y="182"/>
      <point x="550" y="66"/>
      <point x="389" y="66" type="curve" smooth="yes"/>
      <point x="229" y="66"/>
      <point x="156" y="183"/>
    </contour>
  </outline>
</glyph>
<glyph name="uni0556" format="2">
  <advance width="699"/>
  <unicode hex="0556"/>
  <note>
uni0556
</note>
  <outline>
    <contour>
      <point x="335" y="-10" type="curve" smooth="yes"/>
      <point x="539" y="-10"/>
      <point x="646" y="68"/>
      <point x="646" y="215" type="curve" smooth="yes"/>
      <point x="646" y="332"/>
      <point x="576" y="395"/>
      <point x="381" y="418" type="curve"/>
      <point x="381" y="714" type="line"/>
      <point x="275" y="714" type="line" smooth="yes"/>
      <point x="147" y="714"/>
      <point x="68" y="645"/>
      <point x="68" y="541" type="curve" smooth="yes"/>
      <point x="68" y="435"/>
      <point x="129" y="374"/>
      <point x="291" y="353" type="curve"/>
      <point x="291" y="66" type="line"/>
      <point x="216" y="69"/>
      <point x="134" y="87"/>
      <point x="52" y="121" type="curve"/>
      <point x="52" y="39" type="line"/>
      <point x="136" y="6"/>
      <point x="224" y="-10"/>
    </contour>
    <contour>
      <point x="381" y="66" type="curve"/>
      <point x="381" y="344" type="line"/>
      <point x="489" y="329"/>
      <point x="557" y="300"/>
      <point x="557" y="214" type="curve" smooth="yes"/>
      <point x="557" y="129"/>
      <point x="499" y="68"/>
    </contour>
    <contour>
      <point x="291" y="427" type="line"/>
      <point x="198" y="440"/>
      <point x="157" y="474"/>
      <point x="157" y="540" type="curve" smooth="yes"/>
      <point x="157" y="598"/>
      <point x="192" y="638"/>
      <point x="269" y="638" type="curve" smooth="yes"/>
      <point x="291" y="638" type="line"/>
    </contour>
  </outline>
</glyph>
<glyph name="uni0559" format="2">
  <advance width="211"/>
  <unicode hex="0559"/>
  <note>
uni0559
</note>
  <outline>
    <contour>
      <point x="166" y="438" type="curve"/>
      <point x="166" y="515" type="line"/>
      <point x="126" y="515"/>
      <point x="100" y="546"/>
      <point x="100" y="595" type="curve" smooth="yes"/>
      <point x="100" y="649"/>
      <point x="124" y="682"/>
      <point x="174" y="715" type="curve"/>
      <point x="140" y="760" type="line"/>
      <point x="66" y="722"/>
      <point x="21" y="669"/>
      <point x="21" y="583" type="curve" smooth="yes"/>
      <point x="21" y="499"/>
      <point x="72" y="438"/>
    </contour>
  </outline>
</glyph>
<glyph name="uni055A" format="2">
  <advance width="211"/>
  <unicode hex="055A"/>
  <note>
uni055A
</note>
  <outline>
    <contour>
      <point x="45" y="760" type="curve"/>
      <point x="45" y="683" type="line"/>
      <point x="85" y="683"/>
      <point x="111" y="652"/>
      <point x="111" y="604" type="curve" smooth="yes"/>
      <point x="111" y="549"/>
      <point x="87" y="516"/>
      <point x="37" y="484" type="curve"/>
      <point x="71" y="438" type="line"/>
      <point x="145" y="477"/>
      <point x="190" y="529"/>
      <point x="190" y="615" type="curve" smooth="yes"/>
      <point x="190" y="699"/>
      <point x="139" y="760"/>
    </contour>
  </outline>
</glyph>
<glyph name="uni055B" format="2">
  <advance width="211"/>
  <unicode hex="055B"/>
  <note>
uni055B
</note>
  <outline>
    <contour>
      <point x="161" y="814" type="line"/>
      <point x="86" y="814" type="line"/>
      <point x="80" y="759"/>
      <point x="61" y="676"/>
      <point x="34" y="586" type="curve"/>
      <point x="98" y="586" type="line"/>
      <point x="129" y="658"/>
      <point x="154" y="731"/>
      <point x="169" y="802" type="curve"/>
    </contour>
  </outline>
</glyph>
<glyph name="uni055C" format="2">
  <advance width="291"/>
  <unicode hex="055C"/>
  <note>
uni055C
</note>
  <outline>
    <contour>
      <point x="43" y="603" type="curve"/>
      <point x="120" y="603" type="line"/>
      <point x="120" y="615" type="line" smooth="yes"/>
      <point x="120" y="640"/>
      <point x="129" y="658"/>
      <point x="176" y="686" type="curve" smooth="yes"/>
      <point x="236" y="721"/>
      <point x="249" y="740"/>
      <point x="249" y="814" type="curve"/>
      <point x="173" y="814" type="line"/>
      <point x="173" y="801" type="line" smooth="yes"/>
      <point x="173" y="765"/>
      <point x="159" y="750"/>
      <point x="111" y="720" type="curve" smooth="yes"/>
      <point x="55" y="685"/>
      <point x="43" y="658"/>
    </contour>
  </outline>
</glyph>
<glyph name="uni055D" format="2">
  <advance width="211"/>
  <unicode hex="055D"/>
  <note>
uni055D
</note>
  <outline>
    <contour>
      <point x="50" y="814" type="line"/>
      <point x="42" y="802" type="line"/>
      <point x="57" y="730"/>
      <point x="79" y="664"/>
      <point x="113" y="586" type="curve"/>
      <point x="177" y="586" type="line"/>
      <point x="147" y="682"/>
      <point x="132" y="750"/>
      <point x="124" y="814" type="curve"/>
    </contour>
  </outline>
</glyph>
<glyph name="uni055E" format="2">
  <advance width="442"/>
  <unicode hex="055E"/>
  <note>
uni055E
</note>
  <outline>
    <contour>
      <point x="61" y="634" type="curve"/>
      <point x="133" y="634" type="line"/>
      <point x="138" y="723"/>
      <point x="185" y="762"/>
      <point x="254" y="762" type="curve" smooth="yes"/>
      <point x="291" y="762"/>
      <point x="315" y="750"/>
      <point x="315" y="726" type="curve" smooth="yes"/>
      <point x="315" y="703"/>
      <point x="291" y="691"/>
      <point x="242" y="690" type="curve"/>
      <point x="242" y="631" type="line"/>
      <point x="336" y="632"/>
      <point x="384" y="667"/>
      <point x="384" y="729" type="curve" smooth="yes"/>
      <point x="384" y="789"/>
      <point x="336" y="826"/>
      <point x="258" y="826" type="curve" smooth="yes"/>
      <point x="146" y="826"/>
      <point x="67" y="746"/>
    </contour>
  </outline>
</glyph>
<glyph name="uni055F" format="2">
  <advance width="415"/>
  <unicode hex="055F"/>
  <note>
uni055F
</note>
  <outline>
    <contour>
      <point x="176" y="607" type="curve" smooth="yes"/>
      <point x="389" y="607" type="line"/>
      <point x="389" y="671" type="line"/>
      <point x="185" y="671" type="line" smooth="yes"/>
      <point x="142" y="671"/>
      <point x="120" y="685"/>
      <point x="120" y="721" type="curve" smooth="yes"/>
      <point x="120" y="749"/>
      <point x="142" y="765"/>
      <point x="182" y="765" type="curve" smooth="yes"/>
      <point x="194" y="765"/>
      <point x="211" y="762"/>
      <point x="233" y="754" type="curve"/>
      <point x="252" y="815" type="line"/>
      <point x="225" y="824"/>
      <point x="200" y="829"/>
      <point x="175" y="829" type="curve" smooth="yes"/>
      <point x="101" y="829"/>
      <point x="48" y="786"/>
      <point x="48" y="718" type="curve" smooth="yes"/>
      <point x="48" y="644"/>
      <point x="91" y="607"/>
    </contour>
  </outline>
</glyph>
<glyph name="uni0560" format="2">
  <advance width="920"/>
  <unicode hex="0560"/>
  <note>
uni0561
</note>
  <outline>
    <contour>
      <point x="664" y="501" type="curve" smooth="yes"/>
      <point x="584" y="501"/>
      <point x="519" y="462"/>
      <point x="493" y="409" type="curve"/>
      <point x="488" y="409" type="line"/>
      <point x="464" y="470"/>
      <point x="406" y="501"/>
      <point x="333" y="501" type="curve" smooth="yes"/>
      <point x="246" y="501"/>
      <point x="197" y="459"/>
      <point x="173" y="412" type="curve"/>
      <point x="168" y="412" type="line"/>
      <point x="156" y="492" type="line"/>
      <point x="87" y="492" type="line"/>
      <point x="87" y="0" type="line"/>
      <point x="176" y="0" type="line"/>
      <point x="176" y="251" type="line" smooth="yes"/>
      <point x="176" y="372"/>
      <point x="233" y="428"/>
      <point x="312" y="428" type="curve" smooth="yes"/>
      <point x="373" y="428"/>
      <point x="417" y="388"/>
      <point x="417" y="304" type="curve" smooth="yes"/>
      <point x="417" y="0" type="line"/>
      <point x="506" y="0" type="line"/>
      <point x="506" y="251" type="line" smooth="yes"/>
      <point x="506" y="372"/>
      <point x="560" y="428"/>
      <point x="643" y="428" type="curve" smooth="yes"/>
      <point x="704" y="428"/>
      <point x="748" y="388"/>
      <point x="748" y="304" type="curve" smooth="yes"/>
      <point x="748" y="0" type="line"/>
      <point x="837" y="0" type="line"/>
      <point x="837" y="321" type="line" smooth="yes"/>
      <point x="837" y="441"/>
      <point x="770" y="501"/>
    </contour>
  </outline>
</glyph>
<glyph name="uni0561" format="2">
  <advance width="920"/>
  <unicode hex="0561"/>
  <note>
uni0561
</note>
  <anchor x="460" y="492" name="top"/>
  <outline>
    <contour>
      <point x="255" y="-9" type="curve" smooth="yes"/>
      <point x="335" y="-9"/>
      <point x="400" y="30"/>
      <point x="426" y="83" type="curve"/>
      <point x="431" y="83" type="line"/>
      <point x="455" y="22"/>
      <point x="513" y="-9"/>
      <point x="586" y="-9" type="curve" smooth="yes"/>
      <point x="673" y="-9"/>
      <point x="722" y="33"/>
      <point x="746" y="80" type="curve"/>
      <point x="751" y="80" type="line"/>
      <point x="763" y="0" type="line"/>
      <point x="832" y="0" type="line"/>
      <point x="832" y="492" type="line"/>
      <point x="743" y="492" type="line"/>
      <point x="743" y="241" type="line" smooth="yes"/>
      <point x="743" y="120"/>
      <point x="686" y="64"/>
      <point x="607" y="64" type="curve" smooth="yes"/>
      <point x="546" y="64"/>
      <point x="502" y="104"/>
      <point x="502" y="188" type="curve" smooth="yes"/>
      <point x="502" y="492" type="line"/>
      <point x="413" y="492" type="line"/>
      <point x="413" y="241" type="line" smooth="yes"/>
      <point x="413" y="120"/>
      <point x="359" y="64"/>
      <point x="276" y="64" type="curve" smooth="yes"/>
      <point x="215" y="64"/>
      <point x="171" y="104"/>
      <point x="171" y="188" type="curve" smooth="yes"/>
      <point x="171" y="492" type="line"/>
      <point x="82" y="492" type="line"/>
      <point x="82" y="171" type="line" smooth="yes"/>
      <point x="82" y="51"/>
      <point x="149" y="-9"/>
    </contour>
  </outline>
</glyph>
<glyph name="uni0563" format="2">
  <advance width="639"/>
  <unicode hex="0563"/>
  <note>
uni0563
</note>
  <outline>
    <contour>
      <point x="421" y="-236" type="line"/>
      <point x="510" y="-236" type="line"/>
      <point x="510" y="0" type="line"/>
      <point x="634" y="0" type="line"/>
      <point x="634" y="70" type="line"/>
      <point x="510" y="70" type="line"/>
      <point x="510" y="492" type="line"/>
      <point x="439" y="492" type="line"/>
      <point x="428" y="409" type="line"/>
      <point x="424" y="409" type="line"/>
      <point x="395" y="465"/>
      <point x="340" y="502"/>
      <point x="266" y="502" type="curve" smooth="yes"/>
      <point x="128" y="502"/>
      <point x="57" y="398"/>
      <point x="57" y="245" type="curve" smooth="yes"/>
      <point x="57" y="85"/>
      <point x="130" y="-10"/>
      <point x="257" y="-10" type="curve" smooth="yes"/>
      <point x="339" y="-10"/>
      <point x="394" y="27"/>
      <point x="420" y="89" type="curve"/>
      <point x="426" y="89" type="line"/>
      <point x="423" y="53"/>
      <point x="421" y="15"/>
      <point x="421" y="-14" type="curve" smooth="yes"/>
    </contour>
    <contour>
      <point x="278" y="63" type="curve" smooth="yes"/>
      <point x="192" y="63"/>
      <point x="148" y="124"/>
      <point x="148" y="244" type="curve" smooth="yes"/>
      <point x="148" y="365"/>
      <point x="198" y="429"/>
      <point x="285" y="429" type="curve" smooth="yes"/>
      <point x="377" y="429"/>
      <point x="421" y="365"/>
      <point x="421" y="254" type="curve" smooth="yes"/>
      <point x="421" y="245" type="line" smooth="yes"/>
      <point x="421" y="121"/>
      <point x="373" y="63"/>
    </contour>
  </outline>
</glyph>
<glyph name="uni0564" format="2">
  <advance width="641"/>
  <unicode hex="0564"/>
  <note>
uni0564
</note>
  <outline>
    <contour>
      <point x="425" y="-236" type="line"/>
      <point x="514" y="-236" type="line"/>
      <point x="514" y="0" type="line"/>
      <point x="635" y="0" type="line"/>
      <point x="635" y="70" type="line"/>
      <point x="514" y="70" type="line"/>
      <point x="514" y="314" type="line" smooth="yes"/>
      <point x="514" y="439"/>
      <point x="447" y="502"/>
      <point x="337" y="502" type="curve" smooth="yes"/>
      <point x="249" y="502"/>
      <point x="199" y="458"/>
      <point x="173" y="405" type="curve"/>
      <point x="168" y="405" type="line"/>
      <point x="157" y="492" type="line"/>
      <point x="87" y="492" type="line"/>
      <point x="87" y="0" type="line"/>
      <point x="176" y="0" type="line"/>
      <point x="176" y="241" type="line" smooth="yes"/>
      <point x="176" y="367"/>
      <point x="228" y="429"/>
      <point x="316" y="429" type="curve" smooth="yes"/>
      <point x="382" y="429"/>
      <point x="425" y="387"/>
      <point x="425" y="297" type="curve" smooth="yes"/>
    </contour>
  </outline>
</glyph>
<glyph name="uni0567" format="2">
  <advance width="474"/>
  <unicode hex="0567"/>
  <note>
uni0567
</note>
  <outline>
    <contour>
      <point x="87" y="0" type="line"/>
      <point x="176" y="0" type="line"/>
      <point x="176" y="760" type="line"/>
      <point x="87" y="760" type="line"/>
    </contour>
    <contour>
      <point x="128" y="492" type="line"/>
      <point x="128" y="422" type="line"/>
      <point x="426" y="422" type="line"/>
      <point x="426" y="492" type="line"/>
    </contour>
    <contour>
      <point x="87" y="0" type="line"/>
      <point x="283" y="0" type="line" smooth="yes"/>
      <point x="329" y="0"/>
      <point x="346" y="-21"/>
      <point x="346" y="-74" type="curve" smooth="yes"/>
      <point x="346" y="-87" type="line"/>
      <point x="435" y="-87" type="line"/>
      <point x="435" y="-60" type="line" smooth="yes"/>
      <point x="435" y="33"/>
      <point x="396" y="70"/>
      <point x="304" y="70" type="curve" smooth="yes"/>
      <point x="87" y="70" type="line"/>
    </contour>
  </outline>
</glyph>
<glyph name="uni0569" format="2">
  <advance width="668"/>
  <unicode hex="0569"/>
  <note>
uni0569
</note>
  <outline>
    <contour>
      <point x="87" y="-236" type="line"/>
      <point x="176" y="-236" type="line"/>
      <point x="176" y="256" type="line" smooth="yes"/>
      <point x="176" y="373"/>
      <point x="248" y="429"/>
      <point x="345" y="429" type="curve"/>
      <point x="355" y="502" type="line"/>
      <point x="267" y="502"/>
      <point x="202" y="460"/>
      <point x="173" y="405" type="curve"/>
      <point x="168" y="405" type="line"/>
      <point x="157" y="492" type="line"/>
      <point x="87" y="492" type="line"/>
    </contour>
    <contour>
      <point x="649" y="173" type="curve"/>
      <point x="670" y="238" type="line"/>
      <point x="600" y="268"/>
      <point x="509" y="282"/>
      <point x="432" y="282" type="curve" smooth="yes"/>
      <point x="328" y="282"/>
      <point x="254" y="231"/>
      <point x="254" y="134" type="curve" smooth="yes"/>
      <point x="254" y="46"/>
      <point x="312" y="-10"/>
      <point x="409" y="-10" type="curve" smooth="yes"/>
      <point x="529" y="-10"/>
      <point x="589" y="73"/>
      <point x="589" y="240" type="curve" smooth="yes"/>
      <point x="589" y="414"/>
      <point x="501" y="502"/>
      <point x="355" y="502" type="curve"/>
      <point x="345" y="429" type="line"/>
      <point x="439" y="429"/>
      <point x="499" y="377"/>
      <point x="499" y="240" type="curve" smooth="yes"/>
      <point x="499" y="120"/>
      <point x="480" y="62"/>
      <point x="410" y="62" type="curve" smooth="yes"/>
      <point x="362" y="62"/>
      <point x="338" y="82"/>
      <point x="338" y="131" type="curve" smooth="yes"/>
      <point x="338" y="186"/>
      <point x="374" y="212"/>
      <point x="433" y="212" type="curve" smooth="yes"/>
      <point x="503" y="212"/>
      <point x="589" y="197"/>
    </contour>
  </outline>
</glyph>
<glyph name="uni056A" format="2">
  <advance width="609"/>
  <unicode hex="056A"/>
  <note>
uni056A
</note>
  <outline>
    <contour>
      <point x="306" y="429" type="curve" smooth="yes"/>
      <point x="402" y="429"/>
      <point x="506" y="403"/>
      <point x="592" y="368" type="curve"/>
      <point x="612" y="437" type="line"/>
      <point x="510" y="480"/>
      <point x="410" y="502"/>
      <point x="306" y="502" type="curve" smooth="yes"/>
      <point x="144" y="502"/>
      <point x="59" y="406"/>
      <point x="59" y="241" type="curve" smooth="yes"/>
      <point x="59" y="83"/>
      <point x="132" y="-12"/>
      <point x="283" y="-12" type="curve" smooth="yes"/>
      <point x="434" y="-12"/>
      <point x="502" y="85"/>
      <point x="502" y="243" type="curve" smooth="yes"/>
      <point x="502" y="760" type="line"/>
      <point x="413" y="760" type="line"/>
      <point x="413" y="246" type="line" smooth="yes"/>
      <point x="413" y="131"/>
      <point x="376" y="61"/>
      <point x="283" y="61" type="curve" smooth="yes"/>
      <point x="191" y="61"/>
      <point x="150" y="129"/>
      <point x="150" y="242" type="curve" smooth="yes"/>
      <point x="150" y="364"/>
      <point x="199" y="429"/>
    </contour>
  </outline>
</glyph>
<glyph name="uni056B" format="2">
  <advance width="597"/>
  <unicode hex="056B"/>
  <note>
uni056B
</note>
  <outline>
    <contour>
      <point x="176" y="760" type="line"/>
      <point x="87" y="760" type="line"/>
      <point x="87" y="-236" type="line"/>
      <point x="176" y="-236" type="line"/>
      <point x="176" y="241" type="line" smooth="yes"/>
      <point x="176" y="367"/>
      <point x="230" y="429"/>
      <point x="316" y="429" type="curve" smooth="yes"/>
      <point x="385" y="429"/>
      <point x="425" y="387"/>
      <point x="425" y="297" type="curve" smooth="yes"/>
      <point x="425" y="0" type="line"/>
      <point x="514" y="0" type="line"/>
      <point x="514" y="314" type="line" smooth="yes"/>
      <point x="514" y="439"/>
      <point x="449" y="502"/>
      <point x="337" y="502" type="curve" smooth="yes"/>
      <point x="250" y="502"/>
      <point x="201" y="459"/>
      <point x="176" y="405" type="curve"/>
      <point x="171" y="405" type="line"/>
      <point x="174" y="435"/>
      <point x="176" y="462"/>
      <point x="176" y="492" type="curve" smooth="yes"/>
    </contour>
  </outline>
</glyph>
<glyph name="uni056C" format="2">
  <advance width="265"/>
  <unicode hex="056C"/>
  <note>
uni056C
</note>
  <outline>
    <contour>
      <point x="87" y="-236" type="line"/>
      <point x="280" y="-236" type="line"/>
      <point x="280" y="-166" type="line"/>
      <point x="176" y="-166" type="line"/>
      <point x="176" y="493" type="line"/>
      <point x="87" y="493" type="line"/>
    </contour>
  </outline>
</glyph>
<glyph name="uni056D" format="2">
  <advance width="920"/>
  <unicode hex="056D"/>
  <note>
uni056D
</note>
  <outline>
    <contour>
      <point x="742" y="492" type="line"/>
      <point x="742" y="252" type="line" smooth="yes"/>
      <point x="742" y="126"/>
      <point x="690" y="63"/>
      <point x="606" y="63" type="curve" smooth="yes"/>
      <point x="542" y="63"/>
      <point x="500" y="105"/>
      <point x="500" y="195" type="curve" smooth="yes"/>
      <point x="500" y="314" type="line" smooth="yes"/>
      <point x="500" y="439"/>
      <point x="437" y="502"/>
      <point x="328" y="502" type="curve" smooth="yes"/>
      <point x="245" y="502"/>
      <point x="200" y="459"/>
      <point x="176" y="405" type="curve"/>
      <point x="171" y="405" type="line"/>
      <point x="174" y="435"/>
      <point x="176" y="462"/>
      <point x="176" y="492" type="curve" smooth="yes"/>
      <point x="176" y="760" type="line"/>
      <point x="87" y="760" type="line"/>
      <point x="87" y="-236" type="line"/>
      <point x="176" y="-236" type="line"/>
      <point x="176" y="241" type="line" smooth="yes"/>
      <point x="176" y="367"/>
      <point x="223" y="429"/>
      <point x="306" y="429" type="curve" smooth="yes"/>
      <point x="371" y="429"/>
      <point x="411" y="387"/>
      <point x="411" y="297" type="curve" smooth="yes"/>
      <point x="411" y="178" type="line" smooth="yes"/>
      <point x="411" y="54"/>
      <point x="478" y="-10"/>
      <point x="585" y="-10" type="curve" smooth="yes"/>
      <point x="669" y="-10"/>
      <point x="719" y="34"/>
      <point x="745" y="87" type="curve"/>
      <point x="750" y="87" type="line"/>
      <point x="762" y="0" type="line"/>
      <point x="832" y="0" type="line"/>
      <point x="832" y="492" type="line"/>
    </contour>
  </outline>
</glyph>
<glyph name="uni056E" format="2">
  <advance width="589"/>
  <unicode hex="056E"/>
  <note>
uni056E
</note>
  <outline>
    <contour>
      <point x="331" y="427" type="curve" smooth="yes"/>
      <point x="573" y="427" type="line"/>
      <point x="573" y="497" type="line"/>
      <point x="326" y="497" type="line" smooth="yes"/>
      <point x="142" y="497"/>
      <point x="59" y="380"/>
      <point x="59" y="238" type="curve" smooth="yes"/>
      <point x="59" y="92"/>
      <point x="144" y="-12"/>
      <point x="289" y="-12" type="curve" smooth="yes"/>
      <point x="423" y="-12"/>
      <point x="520" y="73"/>
      <point x="520" y="246" type="curve" smooth="yes"/>
      <point x="520" y="400"/>
      <point x="418" y="551"/>
      <point x="262" y="706" type="curve"/>
      <point x="196" y="655" type="line"/>
      <point x="345" y="513"/>
      <point x="429" y="378"/>
      <point x="429" y="240" type="curve" smooth="yes"/>
      <point x="429" y="111"/>
      <point x="371" y="61"/>
      <point x="289" y="61" type="curve" smooth="yes"/>
      <point x="193" y="61"/>
      <point x="150" y="133"/>
      <point x="150" y="234" type="curve" smooth="yes"/>
      <point x="150" y="345"/>
      <point x="206" y="427"/>
    </contour>
    <contour>
      <point x="196" y="655" type="line"/>
      <point x="258" y="608" type="line"/>
      <point x="378" y="711" type="line"/>
      <point x="331" y="770" type="line"/>
    </contour>
  </outline>
</glyph>
<glyph name="uni0570" format="2">
  <advance width="562"/>
  <unicode hex="0570"/>
  <note>
uni0570
</note>
  <outline>
    <contour>
      <point x="399" y="0" type="line"/>
      <point x="488" y="0" type="line"/>
      <point x="488" y="166" type="line" smooth="yes"/>
      <point x="488" y="292"/>
      <point x="421" y="361"/>
      <point x="307" y="361" type="curve" smooth="yes"/>
      <point x="232" y="361"/>
      <point x="184" y="330"/>
      <point x="155" y="289" type="curve"/>
      <point x="151" y="290" type="line"/>
      <point x="151" y="555"/>
      <point x="244" y="697"/>
      <point x="345" y="697" type="curve" smooth="yes"/>
      <point x="386" y="697"/>
      <point x="418" y="681"/>
      <point x="448" y="651" type="curve"/>
      <point x="501" y="709" type="line"/>
      <point x="458" y="750"/>
      <point x="411" y="770"/>
      <point x="345" y="770" type="curve" smooth="yes"/>
      <point x="190" y="770"/>
      <point x="62" y="598"/>
      <point x="62" y="277" type="curve" smooth="yes"/>
      <point x="62" y="204" type="line"/>
      <point x="146" y="189" type="line"/>
      <point x="170" y="260"/>
      <point x="219" y="288"/>
      <point x="282" y="288" type="curve" smooth="yes"/>
      <point x="359" y="288"/>
      <point x="399" y="243"/>
      <point x="399" y="150" type="curve" smooth="yes"/>
    </contour>
  </outline>
</glyph>
<glyph name="uni0571" format="2">
  <advance width="599"/>
  <unicode hex="0571"/>
  <note>
uni0571
</note>
  <outline>
    <contour>
      <point x="181" y="760" type="curve"/>
      <point x="104" y="760" type="line"/>
      <point x="104" y="654"/>
      <point x="125" y="634"/>
      <point x="284" y="613" type="curve" smooth="yes"/>
      <point x="391" y="599"/>
      <point x="412" y="589"/>
      <point x="412" y="573" type="curve" smooth="yes"/>
      <point x="412" y="557"/>
      <point x="392" y="537"/>
      <point x="271" y="463" type="curve" smooth="yes"/>
      <point x="100" y="359"/>
      <point x="49" y="282"/>
      <point x="49" y="177" type="curve" smooth="yes"/>
      <point x="49" y="54"/>
      <point x="116" y="-10"/>
      <point x="236" y="-10" type="curve" smooth="yes"/>
      <point x="319" y="-10"/>
      <point x="383" y="22"/>
      <point x="421" y="60" type="curve"/>
      <point x="424" y="60" type="line"/>
      <point x="424" y="130" type="line"/>
      <point x="385" y="89"/>
      <point x="317" y="63"/>
      <point x="257" y="63" type="curve" smooth="yes"/>
      <point x="175" y="63"/>
      <point x="139" y="102"/>
      <point x="139" y="177" type="curve" smooth="yes"/>
      <point x="139" y="257"/>
      <point x="188" y="327"/>
      <point x="323" y="408" type="curve" smooth="yes"/>
      <point x="494" y="510"/>
      <point x="513" y="541"/>
      <point x="513" y="587" type="curve" smooth="yes"/>
      <point x="513" y="635"/>
      <point x="478" y="661"/>
      <point x="334" y="678" type="curve" smooth="yes"/>
      <point x="202" y="694"/>
      <point x="181" y="707"/>
    </contour>
    <contour>
      <point x="321" y="479" type="line"/>
      <point x="437" y="0" type="line"/>
      <point x="523" y="23" type="line"/>
      <point x="406" y="502" type="line"/>
    </contour>
    <contour>
      <point x="438" y="0" type="line"/>
      <point x="579" y="0" type="line"/>
      <point x="579" y="70" type="line"/>
      <point x="504" y="70" type="line"/>
    </contour>
  </outline>
</glyph>
<glyph name="uni0572" format="2">
  <advance width="599"/>
  <unicode hex="0572"/>
  <note>
uni0572
</note>
  <outline>
    <contour>
      <point x="425" y="-236" type="line"/>
      <point x="640" y="-236" type="line"/>
      <point x="640" y="-166" type="line"/>
      <point x="514" y="-166" type="line"/>
      <point x="514" y="314" type="line" smooth="yes"/>
      <point x="514" y="439"/>
      <point x="447" y="502"/>
      <point x="335" y="502" type="curve" smooth="yes"/>
      <point x="246" y="502"/>
      <point x="199" y="458"/>
      <point x="173" y="405" type="curve"/>
      <point x="168" y="405" type="line"/>
      <point x="157" y="492" type="line"/>
      <point x="87" y="492" type="line"/>
      <point x="87" y="0" type="line"/>
      <point x="176" y="0" type="line"/>
      <point x="176" y="241" type="line" smooth="yes"/>
      <point x="176" y="367"/>
      <point x="227" y="429"/>
      <point x="314" y="429" type="curve" smooth="yes"/>
      <point x="382" y="429"/>
      <point x="425" y="387"/>
      <point x="425" y="297" type="curve" smooth="yes"/>
    </contour>
  </outline>
</glyph>
<glyph name="uni0573" format="2">
  <advance width="576"/>
  <unicode hex="0573"/>
  <note>
uni0573
</note>
  <outline>
    <contour>
      <point x="510" y="195" type="line" smooth="yes"/>
      <point x="510" y="410"/>
      <point x="421" y="492"/>
      <point x="30" y="502" type="curve"/>
      <point x="30" y="432" type="line"/>
      <point x="364" y="423"/>
      <point x="421" y="359"/>
      <point x="421" y="206" type="curve" smooth="yes"/>
      <point x="421" y="106"/>
      <point x="366" y="63"/>
      <point x="285" y="63" type="curve" smooth="yes"/>
      <point x="208" y="63"/>
      <point x="166" y="113"/>
      <point x="166" y="239" type="curve" smooth="yes"/>
      <point x="166" y="494"/>
      <point x="269" y="697"/>
      <point x="382" y="697" type="curve" smooth="yes"/>
      <point x="420" y="697"/>
      <point x="450" y="684"/>
      <point x="478" y="658" type="curve"/>
      <point x="528" y="718" type="line"/>
      <point x="488" y="752"/>
      <point x="443" y="770"/>
      <point x="382" y="770" type="curve" smooth="yes"/>
      <point x="227" y="770"/>
      <point x="77" y="574"/>
      <point x="77" y="237" type="curve" smooth="yes"/>
      <point x="77" y="69"/>
      <point x="142" y="-10"/>
      <point x="265" y="-10" type="curve" smooth="yes"/>
      <point x="344" y="-10"/>
      <point x="395" y="28"/>
      <point x="423" y="77" type="curve"/>
      <point x="428" y="77" type="line"/>
      <point x="440" y="0" type="line"/>
      <point x="510" y="0" type="line"/>
    </contour>
  </outline>
</glyph>
<glyph name="uni0574" format="2">
  <advance width="602"/>
  <unicode hex="0574"/>
  <note>
uni0574
</note>
  <outline>
    <contour>
      <point x="509" y="389" type="line" smooth="yes"/>
      <point x="509" y="453"/>
      <point x="491" y="497"/>
      <point x="442" y="550" type="curve" smooth="yes"/>
      <point x="394" y="602"/>
      <point x="379" y="620"/>
      <point x="379" y="651" type="curve" smooth="yes"/>
      <point x="379" y="677"/>
      <point x="397" y="697"/>
      <point x="430" y="697" type="curve" smooth="yes"/>
      <point x="470" y="697"/>
      <point x="483" y="670"/>
      <point x="483" y="630" type="curve"/>
      <point x="568" y="630" type="line"/>
      <point x="568" y="720"/>
      <point x="517" y="770"/>
      <point x="435" y="770" type="curve" smooth="yes"/>
      <point x="335" y="770"/>
      <point x="290" y="715"/>
      <point x="290" y="644" type="curve" smooth="yes"/>
      <point x="290" y="609"/>
      <point x="309" y="574"/>
      <point x="359" y="520" type="curve" smooth="yes"/>
      <point x="404" y="472"/>
      <point x="420" y="430"/>
      <point x="420" y="387" type="curve" smooth="yes"/>
      <point x="420" y="252" type="line" smooth="yes"/>
      <point x="420" y="124"/>
      <point x="364" y="63"/>
      <point x="280" y="63" type="curve" smooth="yes"/>
      <point x="214" y="63"/>
      <point x="171" y="105"/>
      <point x="171" y="195" type="curve" smooth="yes"/>
      <point x="171" y="492" type="line"/>
      <point x="82" y="492" type="line"/>
      <point x="82" y="178" type="line" smooth="yes"/>
      <point x="82" y="54"/>
      <point x="150" y="-10"/>
      <point x="259" y="-10" type="curve" smooth="yes"/>
      <point x="343" y="-10"/>
      <point x="397" y="34"/>
      <point x="423" y="87" type="curve"/>
      <point x="428" y="87" type="line"/>
      <point x="439" y="0" type="line"/>
      <point x="509" y="0" type="line"/>
    </contour>
  </outline>
</glyph>
<glyph name="uni0575" format="2">
  <advance width="265"/>
  <unicode hex="0575"/>
  <note>
uni0575
</note>
  <outline>
    <contour>
      <point x="87" y="140" type="line"/>
      <point x="176" y="140" type="line"/>
      <point x="176" y="492" type="line"/>
      <point x="87" y="492" type="line"/>
    </contour>
    <contour>
      <point x="87" y="140" type="line"/>
      <point x="87" y="85"/>
      <point x="93" y="45"/>
      <point x="107" y="9" type="curve" smooth="yes"/>
      <point x="122" y="-30"/>
      <point x="129" y="-62"/>
      <point x="129" y="-94" type="curve" smooth="yes"/>
      <point x="129" y="-140"/>
      <point x="97" y="-171"/>
      <point x="55" y="-171" type="curve" smooth="yes"/>
      <point x="43" y="-171" type="line"/>
      <point x="43" y="-241" type="line"/>
      <point x="69" y="-241" type="line" smooth="yes"/>
      <point x="160" y="-241"/>
      <point x="218" y="-179"/>
      <point x="218" y="-89" type="curve" smooth="yes"/>
      <point x="218" y="-57"/>
      <point x="212" y="-20"/>
      <point x="197" y="16" type="curve" smooth="yes"/>
      <point x="181" y="55"/>
      <point x="176" y="138"/>
      <point x="176" y="140" type="curve"/>
    </contour>
  </outline>
</glyph>
<glyph name="uni0576" format="2">
  <advance width="599"/>
  <unicode hex="0576"/>
  <note>
uni0576
</note>
  <outline>
    <contour>
      <point x="196" y="520" type="line"/>
      <point x="93" y="376"/>
      <point x="62" y="289"/>
      <point x="62" y="198" type="curve" smooth="yes"/>
      <point x="62" y="64"/>
      <point x="135" y="-10"/>
      <point x="261" y="-10" type="curve" smooth="yes"/>
      <point x="345" y="-10"/>
      <point x="399" y="34"/>
      <point x="424" y="87" type="curve"/>
      <point x="430" y="87" type="line"/>
      <point x="441" y="0" type="line"/>
      <point x="511" y="0" type="line"/>
      <point x="511" y="492" type="line"/>
      <point x="422" y="492" type="line"/>
      <point x="422" y="252" type="line" smooth="yes"/>
      <point x="422" y="126"/>
      <point x="364" y="63"/>
      <point x="280" y="63" type="curve" smooth="yes"/>
      <point x="200" y="63"/>
      <point x="153" y="100"/>
      <point x="153" y="204" type="curve" smooth="yes"/>
      <point x="153" y="300"/>
      <point x="187" y="388"/>
      <point x="277" y="528" type="curve"/>
      <point x="277" y="550" type="line"/>
    </contour>
    <contour>
      <point x="277" y="550" type="line"/>
      <point x="194" y="594" type="line" smooth="yes"/>
      <point x="166" y="609"/>
      <point x="151" y="628"/>
      <point x="151" y="651" type="curve" smooth="yes"/>
      <point x="151" y="663"/>
      <point x="155" y="677"/>
      <point x="164" y="692" type="curve" smooth="yes"/>
      <point x="186" y="729" type="line"/>
      <point x="117" y="763" type="line"/>
      <point x="86" y="705" type="line" smooth="yes"/>
      <point x="74" y="683"/>
      <point x="67" y="661"/>
      <point x="67" y="640" type="curve" smooth="yes"/>
      <point x="67" y="605"/>
      <point x="91" y="570"/>
      <point x="137" y="543" type="curve" smooth="yes"/>
      <point x="196" y="509" type="line"/>
    </contour>
  </outline>
</glyph>
<glyph name="uni0577" format="2">
  <advance width="414"/>
  <unicode hex="0577"/>
  <note>
uni0577
</note>
  <outline>
    <contour>
      <point x="380" y="-236" type="line"/>
      <point x="380" y="-166" type="line"/>
      <point x="159" y="-166" type="line" smooth="yes"/>
      <point x="137" y="-166"/>
      <point x="132" y="-159"/>
      <point x="132" y="-146" type="curve" smooth="yes"/>
      <point x="132" y="-133"/>
      <point x="140" y="-117"/>
      <point x="159" y="-94" type="curve" smooth="yes"/>
      <point x="274" y="50" type="line" smooth="yes"/>
      <point x="338" y="130"/>
      <point x="384" y="206"/>
      <point x="384" y="307" type="curve" smooth="yes"/>
      <point x="384" y="426"/>
      <point x="312" y="502"/>
      <point x="189" y="502" type="curve" smooth="yes"/>
      <point x="118" y="502"/>
      <point x="66" y="488"/>
      <point x="15" y="462" type="curve"/>
      <point x="37" y="394" type="line"/>
      <point x="85" y="419"/>
      <point x="129" y="429"/>
      <point x="179" y="429" type="curve" smooth="yes"/>
      <point x="252" y="429"/>
      <point x="293" y="385"/>
      <point x="293" y="300" type="curve" smooth="yes"/>
      <point x="293" y="217"/>
      <point x="259" y="157"/>
      <point x="206" y="89" type="curve" smooth="yes"/>
      <point x="64" y="-93" type="line" smooth="yes"/>
      <point x="32" y="-134"/>
      <point x="22" y="-157"/>
      <point x="22" y="-181" type="curve" smooth="yes"/>
      <point x="22" y="-217"/>
      <point x="39" y="-236"/>
      <point x="90" y="-236" type="curve" smooth="yes"/>
    </contour>
  </outline>
</glyph>
<glyph name="uni0578" format="2">
  <advance width="597"/>
  <unicode hex="0578"/>
  <note>
uni0578
</note>
  <anchor x="298" y="492" name="top"/>
  <outline>
    <contour>
      <point x="87" y="0" type="line"/>
      <point x="176" y="0" type="line"/>
      <point x="176" y="241" type="line" smooth="yes"/>
      <point x="176" y="367"/>
      <point x="232" y="429"/>
      <point x="316" y="429" type="curve" smooth="yes"/>
      <point x="382" y="429"/>
      <point x="425" y="387"/>
      <point x="425" y="297" type="curve" smooth="yes"/>
      <point x="425" y="0" type="line"/>
      <point x="514" y="0" type="line"/>
      <point x="514" y="314" type="line" smooth="yes"/>
      <point x="514" y="439"/>
      <point x="447" y="502"/>
      <point x="337" y="502" type="curve" smooth="yes"/>
      <point x="253" y="502"/>
      <point x="199" y="458"/>
      <point x="173" y="405" type="curve"/>
      <point x="168" y="405" type="line"/>
      <point x="157" y="492" type="line"/>
      <point x="87" y="492" type="line"/>
    </contour>
  </outline>
</glyph>
<glyph name="uni0579" format="2">
  <advance width="344"/>
  <unicode hex="0579"/>
  <note>
uni0579
</note>
  <outline>
    <contour>
      <point x="-24" y="-181" type="curve" smooth="yes"/>
      <point x="-24" y="-217"/>
      <point x="-6" y="-236"/>
      <point x="45" y="-236" type="curve" smooth="yes"/>
      <point x="311" y="-236" type="line"/>
      <point x="311" y="-166" type="line"/>
      <point x="111" y="-166" type="line" smooth="yes"/>
      <point x="89" y="-166"/>
      <point x="81" y="-159"/>
      <point x="81" y="-146" type="curve" smooth="yes"/>
      <point x="81" y="-133"/>
      <point x="91" y="-111"/>
      <point x="106" y="-84" type="curve" smooth="yes"/>
      <point x="312" y="288" type="line"/>
      <point x="238" y="324" type="line"/>
      <point x="12" y="-86" type="line" smooth="yes"/>
      <point x="-13" y="-131"/>
      <point x="-24" y="-157"/>
    </contour>
    <contour>
      <point x="312" y="288" type="line"/>
      <point x="199" y="352" type="line" smooth="yes"/>
      <point x="169" y="369"/>
      <point x="148" y="390"/>
      <point x="148" y="418" type="curve" smooth="yes"/>
      <point x="148" y="442"/>
      <point x="157" y="472"/>
      <point x="170" y="492" type="curve"/>
      <point x="83" y="492" type="line"/>
      <point x="67" y="467"/>
      <point x="58" y="434"/>
      <point x="58" y="408" type="curve" smooth="yes"/>
      <point x="58" y="369"/>
      <point x="76" y="333"/>
      <point x="124" y="303" type="curve" smooth="yes"/>
      <point x="214" y="248" type="line"/>
    </contour>
  </outline>
</glyph>
<glyph name="uni057A" format="2">
  <advance width="920"/>
  <unicode hex="057A"/>
  <note>
uni057A
</note>
  <outline>
    <contour>
      <point x="743" y="-236" type="line"/>
      <point x="832" y="-236" type="line"/>
      <point x="832" y="492" type="line"/>
      <point x="743" y="492" type="line"/>
      <point x="743" y="241" type="line" smooth="yes"/>
      <point x="743" y="120"/>
      <point x="686" y="64"/>
      <point x="607" y="64" type="curve" smooth="yes"/>
      <point x="546" y="64"/>
      <point x="502" y="104"/>
      <point x="502" y="188" type="curve" smooth="yes"/>
      <point x="502" y="492" type="line"/>
      <point x="413" y="492" type="line"/>
      <point x="413" y="241" type="line" smooth="yes"/>
      <point x="413" y="120"/>
      <point x="359" y="64"/>
      <point x="276" y="64" type="curve" smooth="yes"/>
      <point x="215" y="64"/>
      <point x="171" y="104"/>
      <point x="171" y="188" type="curve" smooth="yes"/>
      <point x="171" y="492" type="line"/>
      <point x="82" y="492" type="line"/>
      <point x="82" y="171" type="line" smooth="yes"/>
      <point x="82" y="51"/>
      <point x="149" y="-9"/>
      <point x="255" y="-9" type="curve" smooth="yes"/>
      <point x="333" y="-9"/>
      <point x="398" y="26"/>
      <point x="425" y="83" type="curve"/>
      <point x="430" y="83" type="line"/>
      <point x="457" y="22"/>
      <point x="513" y="-9"/>
      <point x="586" y="-9" type="curve" smooth="yes"/>
      <point x="673" y="-9"/>
      <point x="719" y="31"/>
      <point x="743" y="77" type="curve"/>
      <point x="748" y="77" type="line"/>
      <point x="745" y="46"/>
      <point x="743" y="20"/>
      <point x="743" y="-11" type="curve" smooth="yes"/>
    </contour>
  </outline>
</glyph>
<glyph name="uni057B" format="2">
  <advance width="517"/>
  <unicode hex="057B"/>
  <note>
uni057B
</note>
  <outline>
    <contour>
      <point x="211" y="-166" type="line" smooth="yes"/>
      <point x="189" y="-166"/>
      <point x="184" y="-159"/>
      <point x="184" y="-146" type="curve" smooth="yes"/>
      <point x="184" y="-133"/>
      <point x="191" y="-121"/>
      <point x="211" y="-99" type="curve" smooth="yes"/>
      <point x="320" y="16" type="line" smooth="yes"/>
      <point x="430" y="132"/>
      <point x="487" y="210"/>
      <point x="487" y="296" type="curve" smooth="yes"/>
      <point x="487" y="426"/>
      <point x="409" y="502"/>
      <point x="268" y="502" type="curve" smooth="yes"/>
      <point x="131" y="502"/>
      <point x="51" y="418"/>
      <point x="51" y="295" type="curve" smooth="yes"/>
      <point x="51" y="213"/>
      <point x="80" y="164"/>
      <point x="143" y="127" type="curve" smooth="yes"/>
      <point x="210" y="88"/>
      <point x="232" y="57"/>
      <point x="245" y="25" type="curve"/>
      <point x="295" y="73" type="line"/>
      <point x="282" y="110"/>
      <point x="255" y="141"/>
      <point x="208" y="171" type="curve" smooth="yes"/>
      <point x="157" y="203"/>
      <point x="140" y="232"/>
      <point x="140" y="294" type="curve" smooth="yes"/>
      <point x="140" y="380"/>
      <point x="189" y="429"/>
      <point x="268" y="429" type="curve" smooth="yes"/>
      <point x="348" y="429"/>
      <point x="396" y="385"/>
      <point x="396" y="294" type="curve" smooth="yes"/>
      <point x="396" y="228"/>
      <point x="358" y="169"/>
      <point x="274" y="79" type="curve" smooth="yes"/>
      <point x="115" y="-93" type="line" smooth="yes"/>
      <point x="79" y="-131"/>
      <point x="73" y="-157"/>
      <point x="73" y="-174" type="curve" smooth="yes"/>
      <point x="73" y="-217"/>
      <point x="101" y="-236"/>
      <point x="152" y="-236" type="curve" smooth="yes"/>
      <point x="479" y="-236" type="line"/>
      <point x="479" y="-166" type="line"/>
    </contour>
  </outline>
</glyph>
<glyph name="uni057C" format="2">
  <advance width="619"/>
  <unicode hex="057C"/>
  <note>
uni057C
</note>
  <outline>
    <contour>
      <point x="454" y="70" type="line"/>
      <point x="514" y="153"/>
      <point x="536" y="215"/>
      <point x="536" y="308" type="curve" smooth="yes"/>
      <point x="536" y="431"/>
      <point x="463" y="502"/>
      <point x="337" y="502" type="curve" smooth="yes"/>
      <point x="253" y="502"/>
      <point x="199" y="458"/>
      <point x="173" y="405" type="curve"/>
      <point x="168" y="405" type="line"/>
      <point x="157" y="492" type="line"/>
      <point x="87" y="492" type="line"/>
      <point x="87" y="0" type="line"/>
      <point x="176" y="0" type="line"/>
      <point x="176" y="241" type="line" smooth="yes"/>
      <point x="176" y="367"/>
      <point x="234" y="429"/>
      <point x="318" y="429" type="curve" smooth="yes"/>
      <point x="398" y="429"/>
      <point x="445" y="384"/>
      <point x="445" y="293" type="curve" smooth="yes"/>
      <point x="445" y="208"/>
      <point x="429" y="154"/>
      <point x="357" y="58" type="curve"/>
      <point x="357" y="0" type="line"/>
      <point x="598" y="0" type="line"/>
      <point x="598" y="70" type="line"/>
    </contour>
  </outline>
</glyph>
<glyph name="uni057D" format="2">
  <advance width="597"/>
  <unicode hex="057D"/>
  <note>
uni057D
</note>
  <outline>
    <contour>
      <point x="509" y="492" type="line"/>
      <point x="420" y="492" type="line"/>
      <point x="420" y="252" type="line" smooth="yes"/>
      <point x="420" y="126"/>
      <point x="364" y="63"/>
      <point x="280" y="63" type="curve" smooth="yes"/>
      <point x="214" y="63"/>
      <point x="171" y="105"/>
      <point x="171" y="195" type="curve" smooth="yes"/>
      <point x="171" y="492" type="line"/>
      <point x="82" y="492" type="line"/>
      <point x="82" y="178" type="line" smooth="yes"/>
      <point x="82" y="54"/>
      <point x="150" y="-10"/>
      <point x="259" y="-10" type="curve" smooth="yes"/>
      <point x="343" y="-10"/>
      <point x="397" y="34"/>
      <point x="423" y="87" type="curve"/>
      <point x="428" y="87" type="line"/>
      <point x="439" y="0" type="line"/>
      <point x="509" y="0" type="line"/>
    </contour>
  </outline>
</glyph>
<glyph name="uni057E" format="2">
  <advance width="598"/>
  <unicode hex="057E"/>
  <note>
uni057E
</note>
  <outline>
    <contour>
      <point x="509" y="-166" type="line"/>
      <point x="509" y="760" type="line"/>
      <point x="420" y="760" type="line"/>
      <point x="420" y="252" type="line" smooth="yes"/>
      <point x="420" y="126"/>
      <point x="364" y="63"/>
      <point x="280" y="63" type="curve" smooth="yes"/>
      <point x="214" y="63"/>
      <point x="171" y="105"/>
      <point x="171" y="195" type="curve" smooth="yes"/>
      <point x="171" y="492" type="line"/>
      <point x="82" y="492" type="line"/>
      <point x="82" y="178" type="line" smooth="yes"/>
      <point x="82" y="54"/>
      <point x="150" y="-10"/>
      <point x="259" y="-10" type="curve" smooth="yes"/>
      <point x="343" y="-10"/>
      <point x="395" y="34"/>
      <point x="420" y="87" type="curve"/>
      <point x="426" y="87" type="line"/>
      <point x="422" y="58"/>
      <point x="420" y="31"/>
      <point x="420" y="1" type="curve" smooth="yes"/>
      <point x="420" y="-236" type="line"/>
      <point x="613" y="-236" type="line"/>
      <point x="613" y="-166" type="line"/>
    </contour>
  </outline>
</glyph>
<glyph name="uni057F" format="2">
  <advance width="931"/>
  <unicode hex="057F"/>
  <note>
uni057F
</note>
  <outline>
    <contour>
      <point x="670" y="502" type="curve" smooth="yes"/>
      <point x="586" y="502"/>
      <point x="532" y="458"/>
      <point x="507" y="405" type="curve"/>
      <point x="502" y="405" type="line"/>
      <point x="491" y="492" type="line"/>
      <point x="420" y="492" type="line"/>
      <point x="420" y="252" type="line" smooth="yes"/>
      <point x="420" y="126"/>
      <point x="364" y="63"/>
      <point x="280" y="63" type="curve" smooth="yes"/>
      <point x="214" y="63"/>
      <point x="171" y="105"/>
      <point x="171" y="195" type="curve" smooth="yes"/>
      <point x="171" y="492" type="line"/>
      <point x="82" y="492" type="line"/>
      <point x="82" y="178" type="line" smooth="yes"/>
      <point x="82" y="54"/>
      <point x="150" y="-10"/>
      <point x="259" y="-10" type="curve" smooth="yes"/>
      <point x="343" y="-10"/>
      <point x="397" y="34"/>
      <point x="423" y="87" type="curve"/>
      <point x="428" y="87" type="line"/>
      <point x="439" y="0" type="line"/>
      <point x="509" y="0" type="line"/>
      <point x="509" y="241" type="line" smooth="yes"/>
      <point x="509" y="367"/>
      <point x="565" y="429"/>
      <point x="649" y="429" type="curve" smooth="yes"/>
      <point x="716" y="429"/>
      <point x="759" y="387"/>
      <point x="759" y="297" type="curve" smooth="yes"/>
      <point x="759" y="0" type="line"/>
      <point x="848" y="0" type="line"/>
      <point x="848" y="314" type="line" smooth="yes"/>
      <point x="848" y="439"/>
      <point x="780" y="502"/>
    </contour>
  </outline>
</glyph>
<glyph name="uni0581" format="2">
  <advance width="599"/>
  <unicode hex="0581"/>
  <note>
uni0581
</note>
  <outline>
    <contour>
      <point x="266" y="-245" type="curve" smooth="yes"/>
      <point x="447" y="-245"/>
      <point x="511" y="-162"/>
      <point x="511" y="-18" type="curve" smooth="yes"/>
      <point x="511" y="492" type="line"/>
      <point x="441" y="492" type="line"/>
      <point x="429" y="415" type="line"/>
      <point x="424" y="415" type="line"/>
      <point x="393" y="468"/>
      <point x="342" y="502"/>
      <point x="267" y="502" type="curve" smooth="yes"/>
      <point x="135" y="502"/>
      <point x="59" y="410"/>
      <point x="59" y="242" type="curve" smooth="yes"/>
      <point x="59" y="76"/>
      <point x="136" y="-9"/>
      <point x="259" y="-9" type="curve" smooth="yes"/>
      <point x="335" y="-9"/>
      <point x="394" y="25"/>
      <point x="421" y="90" type="curve"/>
      <point x="427" y="90" type="line"/>
      <point x="423" y="51"/>
      <point x="422" y="25"/>
      <point x="422" y="-8" type="curve" smooth="yes"/>
      <point x="422" y="-39" type="line" smooth="yes"/>
      <point x="422" y="-120"/>
      <point x="384" y="-172"/>
      <point x="268" y="-172" type="curve" smooth="yes"/>
      <point x="197" y="-172"/>
      <point x="147" y="-157"/>
      <point x="99" y="-135" type="curve"/>
      <point x="99" y="-212" type="line"/>
      <point x="151" y="-232"/>
      <point x="197" y="-245"/>
    </contour>
    <contour>
      <point x="280" y="64" type="curve" smooth="yes"/>
      <point x="197" y="64"/>
      <point x="150" y="117"/>
      <point x="150" y="241" type="curve" smooth="yes"/>
      <point x="150" y="367"/>
      <point x="197" y="429"/>
      <point x="286" y="429" type="curve" smooth="yes"/>
      <point x="385" y="429"/>
      <point x="422" y="360"/>
      <point x="422" y="254" type="curve" smooth="yes"/>
      <point x="422" y="247" type="line" smooth="yes"/>
      <point x="422" y="145"/>
      <point x="386" y="64"/>
    </contour>
  </outline>
</glyph>
<glyph name="uni0582" format="2">
  <advance width="321"/>
  <unicode hex="0582"/>
  <note>
uni0582
</note>
  <outline>
    <contour>
      <point x="87" y="0" type="line"/>
      <point x="307" y="0" type="line"/>
      <point x="307" y="70" type="line"/>
      <point x="176" y="70" type="line"/>
      <point x="176" y="492" type="line"/>
      <point x="87" y="492" type="line"/>
    </contour>
  </outline>
</glyph>
<glyph name="uni0583" format="2">
  <advance width="931"/>
  <unicode hex="0583"/>
  <note>
uni0583
</note>
  <outline>
    <contour>
      <point x="670" y="502" type="curve" smooth="yes"/>
      <point x="586" y="502"/>
      <point x="536" y="458"/>
      <point x="510" y="405" type="curve"/>
      <point x="504" y="405" type="line"/>
      <point x="508" y="439"/>
      <point x="509" y="474"/>
      <point x="509" y="508" type="curve" smooth="yes"/>
      <point x="509" y="760" type="line"/>
      <point x="420" y="760" type="line"/>
      <point x="420" y="252" type="line" smooth="yes"/>
      <point x="420" y="126"/>
      <point x="364" y="63"/>
      <point x="280" y="63" type="curve" smooth="yes"/>
      <point x="214" y="63"/>
      <point x="171" y="105"/>
      <point x="171" y="195" type="curve" smooth="yes"/>
      <point x="171" y="492" type="line"/>
      <point x="82" y="492" type="line"/>
      <point x="82" y="178" type="line" smooth="yes"/>
      <point x="82" y="54"/>
      <point x="150" y="-10"/>
      <point x="259" y="-10" type="curve" smooth="yes"/>
      <point x="343" y="-10"/>
      <point x="394" y="36"/>
      <point x="420" y="87" type="curve"/>
      <point x="427" y="87" type="line"/>
      <point x="423" y="58"/>
      <point x="420" y="29"/>
      <point x="420" y="1" type="curve" smooth="yes"/>
      <point x="420" y="-236" type="line"/>
      <point x="509" y="-236" type="line"/>
      <point x="509" y="241" type="line" smooth="yes"/>
      <point x="509" y="367"/>
      <point x="565" y="429"/>
      <point x="649" y="429" type="curve" smooth="yes"/>
      <point x="716" y="429"/>
      <point x="759" y="387"/>
      <point x="759" y="297" type="curve" smooth="yes"/>
      <point x="759" y="0" type="line"/>
      <point x="848" y="0" type="line"/>
      <point x="848" y="314" type="line" smooth="yes"/>
      <point x="848" y="439"/>
      <point x="780" y="502"/>
    </contour>
  </outline>
</glyph>
<glyph name="uni0584" format="2">
  <advance width="597"/>
  <unicode hex="0584"/>
  <note>
uni0584
</note>
  <outline>
    <contour>
      <point x="87" y="-236" type="line"/>
      <point x="176" y="-236" type="line"/>
      <point x="176" y="-133" type="line"/>
      <point x="509" y="-133" type="line"/>
      <point x="509" y="-63" type="line"/>
      <point x="176" y="-63" type="line"/>
      <point x="176" y="-23" type="line" smooth="yes"/>
      <point x="176" y="11"/>
      <point x="175" y="43"/>
      <point x="171" y="84" type="curve"/>
      <point x="177" y="84" type="line"/>
      <point x="204" y="26"/>
      <point x="254" y="-9"/>
      <point x="333" y="-9" type="curve" smooth="yes"/>
      <point x="462" y="-9"/>
      <point x="537" y="93"/>
      <point x="537" y="248" type="curve" smooth="yes"/>
      <point x="537" y="406"/>
      <point x="465" y="502"/>
      <point x="336" y="502" type="curve" smooth="yes"/>
      <point x="254" y="502"/>
      <point x="201" y="460"/>
      <point x="172" y="400" type="curve"/>
      <point x="168" y="400" type="line"/>
      <point x="158" y="492" type="line"/>
      <point x="87" y="492" type="line"/>
      <point x="87" y="-63" type="line"/>
      <point x="17" y="-63" type="line"/>
      <point x="17" y="-133" type="line"/>
      <point x="87" y="-133" type="line"/>
    </contour>
    <contour>
      <point x="310" y="64" type="curve" smooth="yes"/>
      <point x="226" y="64"/>
      <point x="176" y="113"/>
      <point x="176" y="244" type="curve" smooth="yes"/>
      <point x="176" y="249" type="line" smooth="yes"/>
      <point x="176" y="361"/>
      <point x="222" y="429"/>
      <point x="316" y="429" type="curve" smooth="yes"/>
      <point x="400" y="429"/>
      <point x="446" y="364"/>
      <point x="446" y="248" type="curve" smooth="yes"/>
      <point x="446" y="129"/>
      <point x="398" y="64"/>
    </contour>
  </outline>
</glyph>
<glyph name="uni0585" format="2">
  <advance width="584"/>
  <unicode hex="0585"/>
  <note>
uni0585
</note>
  <anchor x="292" y="492" name="top"/>
  <outline>
    <contour>
      <point x="293" y="-9" type="curve" smooth="yes"/>
      <point x="442" y="-9"/>
      <point x="525" y="97"/>
      <point x="525" y="246" type="curve" smooth="yes"/>
      <point x="525" y="393"/>
      <point x="444" y="502"/>
      <point x="295" y="502" type="curve" smooth="yes"/>
      <point x="150" y="502"/>
      <point x="59" y="400"/>
      <point x="59" y="246" type="curve" smooth="yes"/>
      <point x="59" y="97"/>
      <point x="146" y="-9"/>
    </contour>
    <contour>
      <point x="292" y="64" type="curve" smooth="yes"/>
      <point x="196" y="64"/>
      <point x="150" y="136"/>
      <point x="150" y="247" type="curve" smooth="yes"/>
      <point x="150" y="363"/>
      <point x="200" y="429"/>
      <point x="294" y="429" type="curve" smooth="yes"/>
      <point x="393" y="429"/>
      <point x="434" y="355"/>
      <point x="434" y="247" type="curve" smooth="yes"/>
      <point x="434" y="137"/>
      <point x="390" y="64"/>
    </contour>
  </outline>
</glyph>
<glyph name="uni0586" format="2">
  <advance width="640"/>
  <unicode hex="0586"/>
  <note>
uni0586
</note>
  <outline>
    <contour>
      <point x="360" y="405" type="curve"/>
      <point x="360" y="714" type="line"/>
      <point x="304" y="714" type="line" smooth="yes"/>
      <point x="153" y="714"/>
      <point x="64" y="641"/>
      <point x="64" y="540" type="curve" smooth="yes"/>
      <point x="64" y="445"/>
      <point x="123" y="384"/>
      <point x="274" y="345" type="curve"/>
      <point x="274" y="61" type="line"/>
      <point x="204" y="63"/>
      <point x="125" y="85"/>
      <point x="50" y="116" type="curve"/>
      <point x="50" y="38" type="line"/>
      <point x="111" y="14"/>
      <point x="189" y="-5"/>
      <point x="274" y="-9" type="curve"/>
      <point x="274" y="-236" type="line"/>
      <point x="360" y="-236" type="line"/>
      <point x="360" y="-9" type="line"/>
      <point x="495" y="-4"/>
      <point x="585" y="76"/>
      <point x="585" y="186" type="curve" smooth="yes"/>
      <point x="585" y="300"/>
      <point x="523" y="366"/>
    </contour>
    <contour>
      <point x="153" y="540" type="curve" smooth="yes"/>
      <point x="153" y="601"/>
      <point x="203" y="644"/>
      <point x="273" y="644" type="curve"/>
      <point x="273" y="417" type="line"/>
      <point x="190" y="438"/>
      <point x="153" y="486"/>
    </contour>
    <contour>
      <point x="360" y="61" type="curve"/>
      <point x="360" y="333" type="line"/>
      <point x="451" y="312"/>
      <point x="496" y="259"/>
      <point x="496" y="186" type="curve" smooth="yes"/>
      <point x="496" y="117"/>
      <point x="447" y="62"/>
    </contour>
  </outline>
</glyph>
<glyph name="uni0587" format="2">
  <advance width="630"/>
  <unicode hex="0587"/>
  <note>
uni0587
</note>
  <outline>
    <contour>
      <point x="262" y="-10" type="curve" smooth="yes"/>
      <point x="348" y="-10"/>
      <point x="395" y="34"/>
      <point x="420" y="87" type="curve"/>
      <point x="422" y="87" type="line"/>
      <point x="433" y="0" type="line"/>
      <point x="625" y="0" type="line"/>
      <point x="625" y="70" type="line"/>
      <point x="509" y="70" type="line"/>
      <point x="509" y="492" type="line"/>
      <point x="420" y="492" type="line"/>
      <point x="420" y="252" type="line" smooth="yes"/>
      <point x="420" y="126"/>
      <point x="369" y="63"/>
      <point x="283" y="63" type="curve" smooth="yes"/>
      <point x="213" y="63"/>
      <point x="171" y="106"/>
      <point x="171" y="196" type="curve" smooth="yes"/>
      <point x="171" y="760" type="line"/>
      <point x="82" y="760" type="line"/>
      <point x="82" y="178" type="line" smooth="yes"/>
      <point x="82" y="56"/>
      <point x="148" y="-10"/>
    </contour>
  </outline>
</glyph>
<glyph name="uni0588" format="2">
  <advance width="280"/>
  <unicode hex="0588"/>
  <note>
uni0575
</note>
  <outline>
    <contour>
      <point x="96" y="140" type="line"/>
      <point x="185" y="140" type="line"/>
      <point x="185" y="492" type="line"/>
      <point x="96" y="492" type="line"/>
    </contour>
    <contour>
      <point x="96" y="140" type="line"/>
      <point x="96" y="85"/>
      <point x="102" y="45"/>
      <point x="116" y="9" type="curve" smooth="yes"/>
      <point x="131" y="-30"/>
      <point x="138" y="-62"/>
      <point x="138" y="-94" type="curve" smooth="yes"/>
      <point x="138" y="-140"/>
      <point x="106" y="-171"/>
      <point x="64" y="-171" type="curve" smooth="yes"/>
      <point x="52" y="-171" type="line"/>
      <point x="52" y="-241" type="line"/>
      <point x="78" y="-241" type="line" smooth="yes"/>
      <point x="169" y="-241"/>
      <point x="227" y="-179"/>
      <point x="227" y="-89" type="curve" smooth="yes"/>
      <point x="227" y="-57"/>
      <point x="221" y="-20"/>
      <point x="206" y="16" type="curve" smooth="yes"/>
      <point x="190" y="55"/>
      <point x="185" y="138"/>
      <point x="185" y="140" type="curve"/>
    </contour>
    <contour>
      <point x="6" y="157" type="line"/>
      <point x="6" y="87" type="line"/>
      <point x="275" y="87" type="line"/>
      <point x="275" y="157" type="line"/>
    </contour>
  </outline>
</glyph>
<glyph name="uni0589" format="2">
  <advance width="254"/>
  <unicode hex="0589"/>
  <note>
uni0589
</note>
  <outline>
    <contour>
      <point x="71" y="47" type="curve" smooth="yes"/>
      <point x="71" y="9"/>
      <point x="93" y="-11"/>
      <point x="127" y="-11" type="curve" smooth="yes"/>
      <point x="162" y="-11"/>
      <point x="184" y="9"/>
      <point x="184" y="47" type="curve" smooth="yes"/>
      <point x="184" y="86"/>
      <point x="162" y="105"/>
      <point x="127" y="105" type="curve" smooth="yes"/>
      <point x="93" y="105"/>
      <point x="71" y="86"/>
    </contour>
    <contour>
      <point x="71" y="442" type="curve" smooth="yes"/>
      <point x="71" y="403"/>
      <point x="93" y="384"/>
      <point x="127" y="384" type="curve" smooth="yes"/>
      <point x="162" y="384"/>
      <point x="184" y="403"/>
      <point x="184" y="442" type="curve" smooth="yes"/>
      <point x="184" y="481"/>
      <point x="162" y="499"/>
      <point x="127" y="499" type="curve" smooth="yes"/>
      <point x="93" y="499"/>
      <point x="71" y="481"/>
    </contour>
  </outline>
</glyph>
<glyph name="uni058A" format="2">
  <advance width="441"/>
  <unicode hex="058A"/>
  <note>
uni058A
</note>
  <outline>
    <contour>
      <point x="212" y="199" type="curve" smooth="yes"/>
      <point x="273" y="199"/>
      <point x="338" y="210"/>
      <point x="386" y="228" type="curve"/>
      <point x="386" y="291" type="line"/>
      <point x="327" y="278"/>
      <point x="275" y="272"/>
      <point x="230" y="272" type="curve" smooth="yes"/>
      <point x="151" y="272"/>
      <point x="128" y="295"/>
      <point x="128" y="338" type="curve"/>
      <point x="56" y="338" type="line"/>
      <point x="56" y="242"/>
      <point x="102" y="199"/>
    </contour>
  </outline>
</glyph>
<glyph name="uni058D" format="2">
  <advance width="817"/>
  <unicode hex="058D"/>
  <outline>
    <contour>
      <point x="409" y="-10" type="curve" smooth="yes"/>
      <point x="460" y="-10"/>
      <point x="506" y="10"/>
      <point x="542" y="42" type="curve"/>
      <point x="645" y="49"/>
      <point x="723" y="128"/>
      <point x="726" y="227" type="curve"/>
      <point x="759" y="263"/>
      <point x="778" y="308"/>
      <point x="778" y="357" type="curve" smooth="yes"/>
      <point x="778" y="407"/>
      <point x="758" y="453"/>
      <point x="726" y="488" type="curve"/>
      <point x="722" y="590"/>
      <point x="641" y="666"/>
      <point x="542" y="671" type="curve"/>
      <point x="507" y="704"/>
      <point x="460" y="724"/>
      <point x="409" y="724" type="curve" smooth="yes"/>
      <point x="358" y="724"/>
      <point x="311" y="704"/>
      <point x="276" y="672" type="curve"/>
      <point x="170" y="665"/>
      <point x="94" y="585"/>
      <point x="91" y="487" type="curve"/>
      <point x="58" y="451"/>
      <point x="39" y="405"/>
      <point x="39" y="357" type="curve" smooth="yes"/>
      <point x="39" y="307"/>
      <point x="59" y="261"/>
      <point x="91" y="226" type="curve"/>
      <point x="95" y="126"/>
      <point x="175" y="48"/>
      <point x="275" y="43" type="curve"/>
      <point x="311" y="10"/>
      <point x="359" y="-10"/>
    </contour>
    <contour>
      <point x="578" y="89" type="curve"/>
      <point x="595" y="117"/>
      <point x="604" y="150"/>
      <point x="604" y="184" type="curve" smooth="yes"/>
      <point x="604" y="273"/>
      <point x="542" y="348"/>
      <point x="458" y="370" type="curve"/>
      <point x="479" y="382"/>
      <point x="504" y="388"/>
      <point x="529" y="388" type="curve" smooth="yes"/>
      <point x="615" y="388"/>
      <point x="682" y="317"/>
      <point x="682" y="233" type="curve" smooth="yes"/>
      <point x="682" y="165"/>
      <point x="637" y="107"/>
    </contour>
    <contour>
      <point x="408" y="29" type="curve" smooth="yes"/>
      <point x="382" y="29"/>
      <point x="357" y="36"/>
      <point x="336" y="49" type="curve"/>
      <point x="422" y="70"/>
      <point x="481" y="147"/>
      <point x="481" y="234" type="curve" smooth="yes"/>
      <point x="481" y="267"/>
      <point x="472" y="299"/>
      <point x="454" y="329" type="curve"/>
      <point x="515" y="309"/>
      <point x="558" y="251"/>
      <point x="558" y="184" type="curve" smooth="yes"/>
      <point x="558" y="98"/>
      <point x="491" y="29"/>
    </contour>
    <contour>
      <point x="717" y="290" type="curve"/>
      <point x="692" y="372"/>
      <point x="617" y="427"/>
      <point x="532" y="427" type="curve" smooth="yes"/>
      <point x="499" y="427"/>
      <point x="467" y="419"/>
      <point x="438" y="402" type="curve"/>
      <point x="457" y="465"/>
      <point x="513" y="510"/>
      <point x="581" y="510" type="curve" smooth="yes"/>
      <point x="666" y="510"/>
      <point x="733" y="441"/>
      <point x="733" y="357" type="curve" smooth="yes"/>
      <point x="733" y="333"/>
      <point x="728" y="310"/>
    </contour>
    <contour>
      <point x="284" y="81" type="curve" smooth="yes"/>
      <point x="217" y="81"/>
      <point x="161" y="126"/>
      <point x="143" y="188" type="curve"/>
      <point x="170" y="172"/>
      <point x="202" y="163"/>
      <point x="236" y="163" type="curve" smooth="yes"/>
      <point x="323" y="163"/>
      <point x="397" y="222"/>
      <point x="421" y="301" type="curve"/>
      <point x="432" y="282"/>
      <point x="437" y="259"/>
      <point x="437" y="237" type="curve" smooth="yes"/>
      <point x="437" y="149"/>
      <point x="368" y="81"/>
    </contour>
    <contour>
      <point x="396" y="413" type="curve"/>
      <point x="385" y="432"/>
      <point x="380" y="455"/>
      <point x="380" y="477" type="curve" smooth="yes"/>
      <point x="380" y="565"/>
      <point x="449" y="633"/>
      <point x="533" y="633" type="curve" smooth="yes"/>
      <point x="598" y="633"/>
      <point x="656" y="590"/>
      <point x="674" y="526" type="curve"/>
      <point x="647" y="542"/>
      <point x="615" y="551"/>
      <point x="581" y="551" type="curve" smooth="yes"/>
      <point x="494" y="551"/>
      <point x="419" y="492"/>
    </contour>
    <contour>
      <point x="235" y="204" type="curve" smooth="yes"/>
      <point x="151" y="204"/>
      <point x="83" y="273"/>
      <point x="83" y="357" type="curve" smooth="yes"/>
      <point x="83" y="381"/>
      <point x="89" y="404"/>
      <point x="100" y="423" type="curve"/>
      <point x="124" y="342"/>
      <point x="200" y="287"/>
      <point x="284" y="287" type="curve" smooth="yes"/>
      <point x="317" y="287"/>
      <point x="349" y="295"/>
      <point x="378" y="312" type="curve"/>
      <point x="360" y="249"/>
      <point x="303" y="204"/>
    </contour>
    <contour>
      <point x="362" y="385" type="curve"/>
      <point x="302" y="405"/>
      <point x="258" y="463"/>
      <point x="258" y="530" type="curve" smooth="yes"/>
      <point x="258" y="616"/>
      <point x="325" y="685"/>
      <point x="408" y="685" type="curve" smooth="yes"/>
      <point x="434" y="685"/>
      <point x="459" y="678"/>
      <point x="480" y="665" type="curve"/>
      <point x="394" y="644"/>
      <point x="336" y="567"/>
      <point x="336" y="480" type="curve" smooth="yes"/>
      <point x="336" y="447"/>
      <point x="344" y="415"/>
    </contour>
    <contour>
      <point x="288" y="326" type="curve" smooth="yes"/>
      <point x="202" y="326"/>
      <point x="135" y="397"/>
      <point x="135" y="481" type="curve" smooth="yes"/>
      <point x="135" y="548"/>
      <point x="178" y="605"/>
      <point x="238" y="625" type="curve"/>
      <point x="222" y="597"/>
      <point x="213" y="565"/>
      <point x="213" y="530" type="curve" smooth="yes"/>
      <point x="213" y="441"/>
      <point x="275" y="366"/>
      <point x="359" y="344" type="curve"/>
      <point x="337" y="332"/>
      <point x="313" y="326"/>
    </contour>
  </outline>
</glyph>
<glyph name="uni058E" format="2">
  <advance width="817"/>
  <unicode hex="058E"/>
  <outline>
    <contour>
      <point x="409" y="-10" type="curve" smooth="yes"/>
      <point x="459" y="-10"/>
      <point x="507" y="10"/>
      <point x="542" y="43" type="curve"/>
      <point x="642" y="48"/>
      <point x="723" y="126"/>
      <point x="726" y="226" type="curve"/>
      <point x="758" y="261"/>
      <point x="778" y="307"/>
      <point x="778" y="357" type="curve" smooth="yes"/>
      <point x="778" y="405"/>
      <point x="759" y="451"/>
      <point x="726" y="487" type="curve"/>
      <point x="723" y="585"/>
      <point x="647" y="665"/>
      <point x="542" y="672" type="curve"/>
      <point x="507" y="704"/>
      <point x="459" y="724"/>
      <point x="409" y="724" type="curve" smooth="yes"/>
      <point x="358" y="724"/>
      <point x="311" y="704"/>
      <point x="276" y="671" type="curve"/>
      <point x="176" y="666"/>
      <point x="95" y="590"/>
      <point x="91" y="488" type="curve"/>
      <point x="59" y="453"/>
      <point x="39" y="407"/>
      <point x="39" y="357" type="curve" smooth="yes"/>
      <point x="39" y="308"/>
      <point x="58" y="263"/>
      <point x="91" y="227" type="curve"/>
      <point x="94" y="128"/>
      <point x="172" y="49"/>
      <point x="276" y="42" type="curve"/>
      <point x="311" y="10"/>
      <point x="358" y="-10"/>
    </contour>
    <contour>
      <point x="239" y="89" type="curve"/>
      <point x="180" y="107"/>
      <point x="135" y="165"/>
      <point x="135" y="233" type="curve" smooth="yes"/>
      <point x="135" y="317"/>
      <point x="202" y="388"/>
      <point x="288" y="388" type="curve" smooth="yes"/>
      <point x="313" y="388"/>
      <point x="337" y="382"/>
      <point x="359" y="370" type="curve"/>
      <point x="275" y="348"/>
      <point x="213" y="273"/>
      <point x="213" y="184" type="curve" smooth="yes"/>
      <point x="213" y="150"/>
      <point x="222" y="117"/>
    </contour>
    <contour>
      <point x="408" y="29" type="curve" smooth="yes"/>
      <point x="325" y="29"/>
      <point x="258" y="98"/>
      <point x="258" y="184" type="curve" smooth="yes"/>
      <point x="258" y="251"/>
      <point x="302" y="309"/>
      <point x="362" y="329" type="curve"/>
      <point x="344" y="299"/>
      <point x="336" y="267"/>
      <point x="336" y="234" type="curve" smooth="yes"/>
      <point x="336" y="147"/>
      <point x="394" y="70"/>
      <point x="480" y="49" type="curve"/>
      <point x="459" y="36"/>
      <point x="435" y="29"/>
    </contour>
    <contour>
      <point x="99" y="290" type="curve"/>
      <point x="88" y="310"/>
      <point x="83" y="333"/>
      <point x="83" y="357" type="curve" smooth="yes"/>
      <point x="83" y="441"/>
      <point x="151" y="510"/>
      <point x="235" y="510" type="curve" smooth="yes"/>
      <point x="303" y="510"/>
      <point x="360" y="465"/>
      <point x="378" y="402" type="curve"/>
      <point x="349" y="419"/>
      <point x="317" y="427"/>
      <point x="284" y="427" type="curve" smooth="yes"/>
      <point x="200" y="427"/>
      <point x="124" y="372"/>
    </contour>
    <contour>
      <point x="533" y="81" type="curve" smooth="yes"/>
      <point x="449" y="81"/>
      <point x="380" y="149"/>
      <point x="380" y="237" type="curve" smooth="yes"/>
      <point x="380" y="259"/>
      <point x="385" y="282"/>
      <point x="396" y="301" type="curve"/>
      <point x="419" y="222"/>
      <point x="494" y="163"/>
      <point x="581" y="163" type="curve" smooth="yes"/>
      <point x="615" y="163"/>
      <point x="647" y="172"/>
      <point x="674" y="188" type="curve"/>
      <point x="656" y="126"/>
      <point x="600" y="81"/>
    </contour>
    <contour>
      <point x="421" y="413" type="curve"/>
      <point x="397" y="492"/>
      <point x="323" y="551"/>
      <point x="235" y="551" type="curve" smooth="yes"/>
      <point x="201" y="551"/>
      <point x="169" y="542"/>
      <point x="142" y="526" type="curve"/>
      <point x="160" y="590"/>
      <point x="218" y="633"/>
      <point x="284" y="633" type="curve" smooth="yes"/>
      <point x="367" y="633"/>
      <point x="436" y="565"/>
      <point x="436" y="477" type="curve" smooth="yes"/>
      <point x="436" y="455"/>
      <point x="431" y="432"/>
    </contour>
    <contour>
      <point x="581" y="204" type="curve" smooth="yes"/>
      <point x="513" y="204"/>
      <point x="457" y="249"/>
      <point x="438" y="312" type="curve"/>
      <point x="467" y="295"/>
      <point x="499" y="287"/>
      <point x="532" y="287" type="curve" smooth="yes"/>
      <point x="617" y="287"/>
      <point x="692" y="342"/>
      <point x="717" y="423" type="curve"/>
      <point x="727" y="404"/>
      <point x="733" y="381"/>
      <point x="733" y="357" type="curve" smooth="yes"/>
      <point x="733" y="273"/>
      <point x="666" y="204"/>
    </contour>
    <contour>
      <point x="454" y="385" type="curve"/>
      <point x="472" y="415"/>
      <point x="481" y="447"/>
      <point x="481" y="480" type="curve" smooth="yes"/>
      <point x="481" y="567"/>
      <point x="422" y="644"/>
      <point x="336" y="665" type="curve"/>
      <point x="357" y="678"/>
      <point x="382" y="685"/>
      <point x="408" y="685" type="curve" smooth="yes"/>
      <point x="491" y="685"/>
      <point x="558" y="616"/>
      <point x="558" y="530" type="curve" smooth="yes"/>
      <point x="558" y="463"/>
      <point x="515" y="405"/>
    </contour>
    <contour>
      <point x="529" y="326" type="curve" smooth="yes"/>
      <point x="504" y="326"/>
      <point x="479" y="332"/>
      <point x="458" y="344" type="curve"/>
      <point x="542" y="366"/>
      <point x="604" y="441"/>
      <point x="604" y="530" type="curve" smooth="yes"/>
      <point x="604" y="565"/>
      <point x="595" y="597"/>
      <point x="578" y="625" type="curve"/>
      <point x="639" y="605"/>
      <point x="682" y="548"/>
      <point x="682" y="481" type="curve" smooth="yes"/>
      <point x="682" y="397"/>
      <point x="615" y="326"/>
    </contour>
  </outline>
</glyph>
<glyph name="uni058F" format="2">
  <advance width="732"/>
  <unicode hex="058F"/>
  <note>
uni058F
</note>
  <outline>
    <contour>
      <point x="581" y="0" type="line"/>
      <point x="581" y="461" type="line" smooth="yes"/>
      <point x="581" y="629"/>
      <point x="489" y="724"/>
      <point x="323" y="724" type="curve" smooth="yes"/>
      <point x="146" y="724"/>
      <point x="59" y="621"/>
      <point x="59" y="445" type="curve"/>
      <point x="149" y="445" type="line"/>
      <point x="149" y="584"/>
      <point x="204" y="648"/>
      <point x="321" y="648" type="curve" smooth="yes"/>
      <point x="433" y="648"/>
      <point x="491" y="589"/>
      <point x="491" y="470" type="curve" smooth="yes"/>
      <point x="491" y="0" type="line"/>
    </contour>
    <contour>
      <point x="363" y="392" type="line"/>
      <point x="363" y="333" type="line"/>
      <point x="708" y="333" type="line"/>
      <point x="708" y="392" type="line"/>
    </contour>
    <contour>
      <point x="363" y="257" type="line"/>
      <point x="363" y="197" type="line"/>
      <point x="708" y="197" type="line"/>
      <point x="708" y="257" type="line"/>
    </contour>
  </outline>
</glyph>
<glyph name="uniFB14" format="2">
  <advance width="1218"/>
  <unicode hex="FB14"/>
  <note>
uniFB14
</note>
  <outline>
    <contour>
      <point x="509" y="385" type="line" smooth="yes"/>
      <point x="509" y="448"/>
      <point x="491" y="492"/>
      <point x="442" y="545" type="curve" smooth="yes"/>
      <point x="394" y="597"/>
      <point x="379" y="614"/>
      <point x="379" y="645" type="curve" smooth="yes"/>
      <point x="379" y="669"/>
      <point x="397" y="690"/>
      <point x="430" y="690" type="curve" smooth="yes"/>
      <point x="735" y="690" type="line"/>
      <point x="735" y="760" type="line"/>
      <point x="435" y="760" type="line" smooth="yes"/>
      <point x="335" y="760"/>
      <point x="290" y="708"/>
      <point x="290" y="639" type="curve" smooth="yes"/>
      <point x="290" y="604"/>
      <point x="309" y="569"/>
      <point x="359" y="515" type="curve" smooth="yes"/>
      <point x="404" y="467"/>
      <point x="420" y="426"/>
      <point x="420" y="382" type="curve" smooth="yes"/>
      <point x="420" y="252" type="line" smooth="yes"/>
      <point x="420" y="124"/>
      <point x="364" y="63"/>
      <point x="280" y="63" type="curve" smooth="yes"/>
      <point x="214" y="63"/>
      <point x="171" y="105"/>
      <point x="171" y="195" type="curve" smooth="yes"/>
      <point x="171" y="492" type="line"/>
      <point x="82" y="492" type="line"/>
      <point x="82" y="178" type="line" smooth="yes"/>
      <point x="82" y="54"/>
      <point x="150" y="-10"/>
      <point x="259" y="-10" type="curve" smooth="yes"/>
      <point x="343" y="-10"/>
      <point x="397" y="34"/>
      <point x="423" y="87" type="curve"/>
      <point x="428" y="87" type="line"/>
      <point x="439" y="0" type="line"/>
      <point x="509" y="0" type="line"/>
    </contour>
    <contour>
      <point x="1130" y="317" type="line"/>
      <point x="1041" y="317" type="line"/>
      <point x="1041" y="252" type="line" smooth="yes"/>
      <point x="1041" y="126"/>
      <point x="985" y="63"/>
      <point x="901" y="63" type="curve" smooth="yes"/>
      <point x="835" y="63"/>
      <point x="792" y="105"/>
      <point x="792" y="195" type="curve" smooth="yes"/>
      <point x="792" y="760" type="line"/>
      <point x="703" y="760" type="line"/>
      <point x="703" y="178" type="line" smooth="yes"/>
      <point x="703" y="54"/>
      <point x="771" y="-10"/>
      <point x="880" y="-10" type="curve" smooth="yes"/>
      <point x="964" y="-10"/>
      <point x="1018" y="34"/>
      <point x="1044" y="87" type="curve"/>
      <point x="1049" y="87" type="line"/>
      <point x="1060" y="0" type="line"/>
      <point x="1130" y="0" type="line"/>
    </contour>
    <contour>
      <point x="746" y="492" type="line"/>
      <point x="746" y="422" type="line"/>
      <point x="1149" y="422" type="line"/>
      <point x="1149" y="492" type="line"/>
    </contour>
  </outline>
</glyph>
<glyph name="uniFB15" format="2">
  <advance width="1215"/>
  <unicode hex="FB15"/>
  <note>
uniFB15
</note>
  <outline>
    <contour>
      <point x="509" y="385" type="line" smooth="yes"/>
      <point x="509" y="448"/>
      <point x="491" y="492"/>
      <point x="442" y="545" type="curve" smooth="yes"/>
      <point x="394" y="597"/>
      <point x="379" y="614"/>
      <point x="379" y="645" type="curve" smooth="yes"/>
      <point x="379" y="669"/>
      <point x="397" y="690"/>
      <point x="430" y="690" type="curve" smooth="yes"/>
      <point x="740" y="690" type="line"/>
      <point x="740" y="760" type="line"/>
      <point x="435" y="760" type="line" smooth="yes"/>
      <point x="335" y="760"/>
      <point x="290" y="708"/>
      <point x="290" y="639" type="curve" smooth="yes"/>
      <point x="290" y="604"/>
      <point x="309" y="569"/>
      <point x="359" y="515" type="curve" smooth="yes"/>
      <point x="404" y="467"/>
      <point x="420" y="426"/>
      <point x="420" y="382" type="curve" smooth="yes"/>
      <point x="420" y="252" type="line" smooth="yes"/>
      <point x="420" y="124"/>
      <point x="364" y="63"/>
      <point x="280" y="63" type="curve" smooth="yes"/>
      <point x="214" y="63"/>
      <point x="171" y="105"/>
      <point x="171" y="195" type="curve" smooth="yes"/>
      <point x="171" y="492" type="line"/>
      <point x="82" y="492" type="line"/>
      <point x="82" y="178" type="line" smooth="yes"/>
      <point x="82" y="54"/>
      <point x="150" y="-10"/>
      <point x="259" y="-10" type="curve" smooth="yes"/>
      <point x="343" y="-10"/>
      <point x="397" y="34"/>
      <point x="423" y="87" type="curve"/>
      <point x="428" y="87" type="line"/>
      <point x="439" y="0" type="line"/>
      <point x="509" y="0" type="line"/>
    </contour>
    <contour>
      <point x="794" y="760" type="line"/>
      <point x="705" y="760" type="line"/>
      <point x="705" y="-236" type="line"/>
      <point x="794" y="-236" type="line"/>
      <point x="794" y="241" type="line" smooth="yes"/>
      <point x="794" y="367"/>
      <point x="848" y="429"/>
      <point x="934" y="429" type="curve" smooth="yes"/>
      <point x="1003" y="429"/>
      <point x="1043" y="387"/>
      <point x="1043" y="297" type="curve" smooth="yes"/>
      <point x="1043" y="0" type="line"/>
      <point x="1132" y="0" type="line"/>
      <point x="1132" y="314" type="line" smooth="yes"/>
      <point x="1132" y="439"/>
      <point x="1067" y="502"/>
      <point x="955" y="502" type="curve" smooth="yes"/>
      <point x="868" y="502"/>
      <point x="819" y="459"/>
      <point x="794" y="405" type="curve"/>
      <point x="789" y="405" type="line"/>
      <point x="792" y="435"/>
      <point x="794" y="462"/>
      <point x="794" y="492" type="curve" smooth="yes"/>
    </contour>
  </outline>
</glyph>
<glyph name="uniFB16" format="2">
  <advance width="1187"/>
  <unicode hex="FB16"/>
  <note>
uniFB16
</note>
  <outline>
    <contour>
      <point x="509" y="-166" type="line"/>
      <point x="509" y="760" type="line"/>
      <point x="420" y="760" type="line"/>
      <point x="420" y="252" type="line" smooth="yes"/>
      <point x="420" y="126"/>
      <point x="364" y="63"/>
      <point x="280" y="63" type="curve" smooth="yes"/>
      <point x="214" y="63"/>
      <point x="171" y="105"/>
      <point x="171" y="195" type="curve" smooth="yes"/>
      <point x="171" y="492" type="line"/>
      <point x="82" y="492" type="line"/>
      <point x="82" y="178" type="line" smooth="yes"/>
      <point x="82" y="54"/>
      <point x="150" y="-10"/>
      <point x="259" y="-10" type="curve" smooth="yes"/>
      <point x="343" y="-10"/>
      <point x="395" y="34"/>
      <point x="420" y="87" type="curve"/>
      <point x="426" y="87" type="line"/>
      <point x="422" y="58"/>
      <point x="420" y="31"/>
      <point x="420" y="1" type="curve" smooth="yes"/>
      <point x="420" y="-236" type="line"/>
      <point x="640" y="-236" type="line"/>
      <point x="640" y="-166" type="line"/>
    </contour>
    <contour>
      <point x="425" y="760" type="line"/>
      <point x="425" y="690" type="line"/>
      <point x="705" y="690" type="line"/>
      <point x="705" y="760" type="line"/>
    </contour>
    <contour>
      <point x="783" y="523" type="line"/>
      <point x="679" y="379"/>
      <point x="651" y="289"/>
      <point x="651" y="198" type="curve" smooth="yes"/>
      <point x="651" y="64"/>
      <point x="724" y="-10"/>
      <point x="850" y="-10" type="curve" smooth="yes"/>
      <point x="934" y="-10"/>
      <point x="988" y="34"/>
      <point x="1013" y="87" type="curve"/>
      <point x="1019" y="87" type="line"/>
      <point x="1030" y="0" type="line"/>
      <point x="1100" y="0" type="line"/>
      <point x="1100" y="492" type="line"/>
      <point x="1011" y="492" type="line"/>
      <point x="1011" y="252" type="line" smooth="yes"/>
      <point x="1011" y="126"/>
      <point x="953" y="63"/>
      <point x="869" y="63" type="curve" smooth="yes"/>
      <point x="789" y="63"/>
      <point x="742" y="108"/>
      <point x="742" y="212" type="curve" smooth="yes"/>
      <point x="742" y="308"/>
      <point x="777" y="393"/>
      <point x="867" y="533" type="curve"/>
      <point x="867" y="550" type="line"/>
      <point x="815" y="572" type="line"/>
    </contour>
    <contour>
      <point x="867" y="550" type="line"/>
      <point x="789" y="594" type="line" smooth="yes"/>
      <point x="756" y="612"/>
      <point x="741" y="628"/>
      <point x="741" y="651" type="curve" smooth="yes"/>
      <point x="741" y="663"/>
      <point x="745" y="677"/>
      <point x="754" y="692" type="curve" smooth="yes"/>
      <point x="774" y="726" type="line"/>
      <point x="705" y="760" type="line"/>
      <point x="676" y="705" type="line" smooth="yes"/>
      <point x="664" y="683"/>
      <point x="657" y="661"/>
      <point x="657" y="640" type="curve" smooth="yes"/>
      <point x="657" y="605"/>
      <point x="681" y="570"/>
      <point x="727" y="543" type="curve" smooth="yes"/>
      <point x="781" y="512" type="line"/>
    </contour>
  </outline>
</glyph>
